<svg width="62" height="24" viewBox="0 0 62 24" fill="none" xmlns="http://www.w3.org/2000/svg">
<path d="M50.4058 10.3523V6.5484H52.6046V1.04272L58.7681 1.04272V6.5484H61.9997V10.3523H58.7681V17.2594C58.7681 17.7933 58.8902 18.1937 59.1346 18.4607C59.4011 18.7276 59.7676 18.8722 60.234 18.8945C60.7004 18.9167 61.2668 18.9056 61.9331 18.8611V23.4992C60.8226 23.7661 59.7898 23.8996 58.8347 23.8996C56.6803 23.8996 55.1033 23.5214 54.1038 22.7651C53.1044 21.9865 52.6046 20.6185 52.6046 18.6609V10.3523H50.4058Z" fill="#2A2A2A"/>
<path d="M43.5187 23.5661C43.2522 23.1212 43.0634 22.4983 42.9523 21.6975H42.8857C41.7752 23.2324 40.0649 23.9999 37.755 23.9999C36.067 23.9999 34.7011 23.5549 33.6572 22.6651C32.6133 21.7753 32.0913 20.5185 32.0913 18.8946C32.0913 17.1595 32.6466 15.9137 33.7571 15.1574C34.8676 14.3788 36.3669 13.8783 38.2548 13.6559C40.0316 13.4556 41.231 13.2221 41.8529 12.9551C42.497 12.6882 42.8191 12.2878 42.8191 11.7539C42.8191 10.6639 42.2194 10.1189 41.02 10.1189C39.7096 10.1189 38.9655 10.7974 38.7878 12.1543H32.8243C32.8909 10.3747 33.6127 8.90652 34.9898 7.74977C36.3669 6.59302 38.3325 6.01465 40.8867 6.01465C43.3743 6.01465 45.2289 6.39282 46.4505 7.14915C48.2052 8.23916 49.0825 9.94092 49.0825 12.2544V20.7632C49.0825 22.1869 49.2935 23.0322 49.7155 23.2991V23.5661H43.5187ZM40.1205 20.2627C40.9201 20.2627 41.5975 20.0291 42.1527 19.5619C42.708 19.0726 42.9857 18.3496 42.9857 17.393V15.8915C42.3415 16.2029 41.5309 16.4699 40.5536 16.6923C39.6652 16.8925 39.0433 17.1372 38.6879 17.4264C38.3325 17.7156 38.1548 18.116 38.1548 18.6276C38.1548 19.1615 38.3436 19.5731 38.7212 19.8623C39.0988 20.1292 39.5652 20.2627 40.1205 20.2627Z" fill="#2A2A2A"/>
<path d="M19.3661 0V8.77571H19.466C20.8875 7.12957 22.6088 6.3065 24.63 6.3065C26.5623 6.3065 28.0393 6.896 29.061 8.07499C30.0827 9.25398 30.5936 10.8445 30.5936 12.8466L30.5936 23.8579C30.5936 23.8579 28.6747 23.8579 27.4452 23.8579C26.2157 23.8579 24.2968 23.8579 24.2968 23.8579V14.3815C24.2968 12.4239 23.5084 11.4451 21.9314 11.4451C21.154 11.4451 20.5321 11.7566 20.0657 12.3794C19.5993 12.98 19.3661 13.7475 19.3661 14.6818V23.8579H13.0693L13.0693 0L19.3661 0Z" fill="#2A2A2A"/>
<path d="M0 10.3397L0 6.5358H2.19886L2.19886 0.681508C2.19886 0.467005 2.31168 0.26836 2.51362 0.196024C2.99047 0.0252156 3.97994 -0.181612 5.28059 0.335933C6.18897 0.697389 6.94557 0.768311 7.48176 0.746353C7.91258 0.728711 8.36232 1.06407 8.36232 1.49525V6.5358H11.594V10.3397H8.36232L8.36232 17.2468C8.36232 17.7807 8.48448 18.1811 8.7288 18.4481C8.99533 18.715 9.3618 18.8596 9.82823 18.8819C10.2947 18.9041 10.861 18.893 11.5273 18.8485V23.4866C10.4168 23.7535 9.38402 23.887 8.42896 23.887C6.27452 23.887 4.69756 23.5089 3.69808 22.7525C2.6986 21.9739 2.19886 20.6059 2.19886 18.6483L2.19886 10.3397H0Z" fill="#2A2A2A"/>
</svg>
