<svg width="26" height="26" viewBox="0 0 26 26" fill="none" xmlns="http://www.w3.org/2000/svg">
<path d="M23 4.66667V10.5C23 10.7257 22.9175 10.921 22.7526 11.0859C22.5877 11.2509 22.3924 11.3333 22.1667 11.3333H16.3333C15.9687 11.3333 15.7127 11.1597 15.5651 10.8125C15.4175 10.474 15.4783 10.1745 15.7474 9.91406L17.5443 8.11719C16.2595 6.92795 14.7448 6.33333 13 6.33333C12.0972 6.33333 11.2357 6.50911 10.4154 6.86068C9.59505 7.21224 8.88542 7.6875 8.28646 8.28646C7.6875 8.88542 7.21224 9.59505 6.86068 10.4154C6.50911 11.2357 6.33333 12.0972 6.33333 13C6.33333 13.9028 6.50911 14.7643 6.86068 15.5846C7.21224 16.4049 7.6875 17.1146 8.28646 17.7135C8.88542 18.3125 9.59505 18.7878 10.4154 19.1393C11.2357 19.4909 12.0972 19.6667 13 19.6667C14.033 19.6667 15.0095 19.441 15.9297 18.9896C16.8498 18.5382 17.6267 17.9002 18.2604 17.0755C18.3212 16.9887 18.421 16.9366 18.5599 16.9193C18.6901 16.9193 18.7986 16.9583 18.8854 17.0365L20.6693 18.8333C20.7474 18.9028 20.7886 18.9918 20.793 19.1003C20.7973 19.2088 20.7648 19.3064 20.6953 19.3932C19.7491 20.5391 18.6033 21.4266 17.2578 22.056C15.9123 22.6853 14.4931 23 13 23C11.6458 23 10.3524 22.7352 9.11979 22.2057C7.88715 21.6762 6.82378 20.9644 5.92969 20.0703C5.03559 19.1762 4.32378 18.1128 3.79427 16.8802C3.26476 15.6476 3 14.3542 3 13C3 11.6458 3.26476 10.3524 3.79427 9.11979C4.32378 7.88715 5.03559 6.82378 5.92969 5.92969C6.82378 5.03559 7.88715 4.32378 9.11979 3.79427C10.3524 3.26476 11.6458 3 13 3C14.276 3 15.5109 3.24089 16.7044 3.72266C17.898 4.20443 18.9592 4.88368 19.888 5.76042L21.5807 4.08073C21.8325 3.81163 22.1363 3.75087 22.4922 3.89844C22.8307 4.04601 23 4.30208 23 4.66667Z" fill="#2A2A2A"/>
</svg>
