<svg width="26" height="26" viewBox="0 0 26 26" fill="none" xmlns="http://www.w3.org/2000/svg">
<path d="M23.8989 19.5L9.75 5.35112C9.44027 5.05607 9.0289 4.89148 8.60113 4.89148C8.17335 4.89148 7.76198 5.05607 7.45225 5.35112L5.35112 7.45225C5.04648 7.75698 4.87535 8.17023 4.87535 8.60113C4.87535 9.03202 5.04648 9.44527 5.35112 9.75L19.4992 23.8989C19.8039 24.2035 20.2172 24.3747 20.6481 24.3747C21.079 24.3747 21.4922 24.2035 21.7969 23.8989L23.8989 21.7977C24.2035 21.493 24.3747 21.0798 24.3747 20.6489C24.3747 20.218 24.2035 19.8047 23.8989 19.5ZM6.5 8.60113L8.60113 6.5L12.6636 10.5625L10.5617 12.6644L6.5 8.60113ZM1.625 13L3.25 11.375L4.875 13L3.25 14.625L1.625 13ZM11.375 3.25L13 1.625L14.625 3.25L13 4.875L11.375 3.25ZM1.625 3.25L3.25 1.625L4.875 3.25L3.25 4.875L1.625 3.25Z" fill="#2A2A2A"/>
</svg>
