<svg width="606" height="2" viewBox="0 0 606 2" fill="none" xmlns="http://www.w3.org/2000/svg">
<path d="M605 1.5C605.276 1.5 605.5 1.27614 605.5 1C605.5 0.723858 605.276 0.5 605 0.5V1.5ZM1 0.5C0.723858 0.5 0.5 0.723858 0.5 1C0.5 1.27614 0.723858 1.5 1 1.5V0.5ZM4.97368 1.5C5.24983 1.5 5.47368 1.27614 5.47368 1C5.47368 0.723858 5.24983 0.5 4.97368 0.5V1.5ZM12.9211 0.5C12.6449 0.5 12.4211 0.723858 12.4211 1C12.4211 1.27614 12.6449 1.5 12.9211 1.5V0.5ZM20.8684 1.5C21.1446 1.5 21.3684 1.27614 21.3684 1C21.3684 0.723858 21.1446 0.5 20.8684 0.5V1.5ZM28.8158 0.5C28.5396 0.5 28.3158 0.723858 28.3158 1C28.3158 1.27614 28.5396 1.5 28.8158 1.5V0.5ZM36.7632 1.5C37.0393 1.5 37.2632 1.27614 37.2632 1C37.2632 0.723858 37.0393 0.5 36.7632 0.5V1.5ZM44.7105 0.5C44.4344 0.5 44.2105 0.723858 44.2105 1C44.2105 1.27614 44.4344 1.5 44.7105 1.5V0.5ZM52.6579 1.5C52.934 1.5 53.1579 1.27614 53.1579 1C53.1579 0.723858 52.934 0.5 52.6579 0.5V1.5ZM60.6053 0.5C60.3291 0.5 60.1053 0.723858 60.1053 1C60.1053 1.27614 60.3291 1.5 60.6053 1.5V0.5ZM68.5526 1.5C68.8288 1.5 69.0526 1.27614 69.0526 1C69.0526 0.723858 68.8288 0.5 68.5526 0.5V1.5ZM76.5 0.5C76.2239 0.5 76 0.723858 76 1C76 1.27614 76.2239 1.5 76.5 1.5V0.5ZM84.4474 1.5C84.7235 1.5 84.9474 1.27614 84.9474 1C84.9474 0.723858 84.7235 0.5 84.4474 0.5V1.5ZM92.3947 0.5C92.1186 0.5 91.8947 0.723858 91.8947 1C91.8947 1.27614 92.1186 1.5 92.3947 1.5V0.5ZM100.342 1.5C100.618 1.5 100.842 1.27614 100.842 1C100.842 0.723858 100.618 0.5 100.342 0.5V1.5ZM108.289 0.5C108.013 0.5 107.789 0.723858 107.789 1C107.789 1.27614 108.013 1.5 108.289 1.5V0.5ZM116.237 1.5C116.513 1.5 116.737 1.27614 116.737 1C116.737 0.723858 116.513 0.5 116.237 0.5V1.5ZM124.184 0.5C123.908 0.5 123.684 0.723858 123.684 1C123.684 1.27614 123.908 1.5 124.184 1.5V0.5ZM132.132 1.5C132.408 1.5 132.632 1.27614 132.632 1C132.632 0.723858 132.408 0.5 132.132 0.5V1.5ZM140.079 0.5C139.803 0.5 139.579 0.723858 139.579 1C139.579 1.27614 139.803 1.5 140.079 1.5V0.5ZM148.026 1.5C148.302 1.5 148.526 1.27614 148.526 1C148.526 0.723858 148.302 0.5 148.026 0.5V1.5ZM155.974 0.5C155.698 0.5 155.474 0.723858 155.474 1C155.474 1.27614 155.698 1.5 155.974 1.5V0.5ZM163.921 1.5C164.197 1.5 164.421 1.27614 164.421 1C164.421 0.723858 164.197 0.5 163.921 0.5V1.5ZM171.868 0.5C171.592 0.5 171.368 0.723858 171.368 1C171.368 1.27614 171.592 1.5 171.868 1.5V0.5ZM179.816 1.5C180.092 1.5 180.316 1.27614 180.316 1C180.316 0.723858 180.092 0.5 179.816 0.5V1.5ZM187.763 0.5C187.487 0.5 187.263 0.723858 187.263 1C187.263 1.27614 187.487 1.5 187.763 1.5V0.5ZM195.711 1.5C195.987 1.5 196.211 1.27614 196.211 1C196.211 0.723858 195.987 0.5 195.711 0.5V1.5ZM203.658 0.5C203.382 0.5 203.158 0.723858 203.158 1C203.158 1.27614 203.382 1.5 203.658 1.5V0.5ZM211.605 1.5C211.881 1.5 212.105 1.27614 212.105 1C212.105 0.723858 211.881 0.5 211.605 0.5V1.5ZM219.553 0.5C219.277 0.5 219.053 0.723858 219.053 1C219.053 1.27614 219.277 1.5 219.553 1.5V0.5ZM227.5 1.5C227.776 1.5 228 1.27614 228 1C228 0.723858 227.776 0.5 227.5 0.5V1.5ZM235.447 0.5C235.171 0.5 234.947 0.723858 234.947 1C234.947 1.27614 235.171 1.5 235.447 1.5V0.5ZM243.395 1.5C243.671 1.5 243.895 1.27614 243.895 1C243.895 0.723858 243.671 0.5 243.395 0.5V1.5ZM251.342 0.5C251.066 0.5 250.842 0.723858 250.842 1C250.842 1.27614 251.066 1.5 251.342 1.5V0.5ZM259.29 1.5C259.566 1.5 259.79 1.27614 259.79 1C259.79 0.723858 259.566 0.5 259.29 0.5V1.5ZM267.237 0.5C266.961 0.5 266.737 0.723858 266.737 1C266.737 1.27614 266.961 1.5 267.237 1.5V0.5ZM275.184 1.5C275.46 1.5 275.684 1.27614 275.684 1C275.684 0.723858 275.46 0.5 275.184 0.5V1.5ZM283.132 0.5C282.855 0.5 282.632 0.723858 282.632 1C282.632 1.27614 282.855 1.5 283.132 1.5V0.5ZM291.079 1.5C291.355 1.5 291.579 1.27614 291.579 1C291.579 0.723858 291.355 0.5 291.079 0.5V1.5ZM299.026 0.5C298.75 0.5 298.526 0.723858 298.526 1C298.526 1.27614 298.75 1.5 299.026 1.5V0.5ZM306.974 1.5C307.25 1.5 307.474 1.27614 307.474 1C307.474 0.723858 307.25 0.5 306.974 0.5V1.5ZM314.921 0.5C314.645 0.5 314.421 0.723858 314.421 1C314.421 1.27614 314.645 1.5 314.921 1.5V0.5ZM322.868 1.5C323.145 1.5 323.368 1.27614 323.368 1C323.368 0.723858 323.145 0.5 322.868 0.5V1.5ZM330.816 0.5C330.54 0.5 330.316 0.723858 330.316 1C330.316 1.27614 330.54 1.5 330.816 1.5V0.5ZM338.763 1.5C339.039 1.5 339.263 1.27614 339.263 1C339.263 0.723858 339.039 0.5 338.763 0.5V1.5ZM346.71 0.5C346.434 0.5 346.21 0.723858 346.21 1C346.21 1.27614 346.434 1.5 346.71 1.5V0.5ZM354.658 1.5C354.934 1.5 355.158 1.27614 355.158 1C355.158 0.723858 354.934 0.5 354.658 0.5V1.5ZM362.605 0.5C362.329 0.5 362.105 0.723858 362.105 1C362.105 1.27614 362.329 1.5 362.605 1.5V0.5ZM370.553 1.5C370.829 1.5 371.053 1.27614 371.053 1C371.053 0.723858 370.829 0.5 370.553 0.5V1.5ZM378.5 0.5C378.224 0.5 378 0.723858 378 1C378 1.27614 378.224 1.5 378.5 1.5V0.5ZM386.447 1.5C386.723 1.5 386.947 1.27614 386.947 1C386.947 0.723858 386.723 0.5 386.447 0.5V1.5ZM394.395 0.5C394.118 0.5 393.895 0.723858 393.895 1C393.895 1.27614 394.118 1.5 394.395 1.5V0.5ZM402.342 1.5C402.618 1.5 402.842 1.27614 402.842 1C402.842 0.723858 402.618 0.5 402.342 0.5V1.5ZM410.289 0.5C410.013 0.5 409.789 0.723858 409.789 1C409.789 1.27614 410.013 1.5 410.289 1.5V0.5ZM418.237 1.5C418.513 1.5 418.737 1.27614 418.737 1C418.737 0.723858 418.513 0.5 418.237 0.5V1.5ZM426.184 0.5C425.908 0.5 425.684 0.723858 425.684 1C425.684 1.27614 425.908 1.5 426.184 1.5V0.5ZM434.131 1.5C434.408 1.5 434.631 1.27614 434.631 1C434.631 0.723858 434.408 0.5 434.131 0.5V1.5ZM442.079 0.5C441.803 0.5 441.579 0.723858 441.579 1C441.579 1.27614 441.803 1.5 442.079 1.5V0.5ZM450.026 1.5C450.302 1.5 450.526 1.27614 450.526 1C450.526 0.723858 450.302 0.5 450.026 0.5V1.5ZM457.973 0.5C457.697 0.5 457.473 0.723858 457.473 1C457.473 1.27614 457.697 1.5 457.973 1.5V0.5ZM465.921 1.5C466.197 1.5 466.421 1.27614 466.421 1C466.421 0.723858 466.197 0.5 465.921 0.5V1.5ZM473.868 0.5C473.592 0.5 473.368 0.723858 473.368 1C473.368 1.27614 473.592 1.5 473.868 1.5V0.5ZM481.816 1.5C482.092 1.5 482.316 1.27614 482.316 1C482.316 0.723858 482.092 0.5 481.816 0.5V1.5ZM489.763 0.5C489.487 0.5 489.263 0.723858 489.263 1C489.263 1.27614 489.487 1.5 489.763 1.5V0.5ZM497.71 1.5C497.986 1.5 498.21 1.27614 498.21 1C498.21 0.723858 497.986 0.5 497.71 0.5V1.5ZM505.658 0.5C505.381 0.5 505.158 0.723858 505.158 1C505.158 1.27614 505.381 1.5 505.658 1.5V0.5ZM513.605 1.5C513.881 1.5 514.105 1.27614 514.105 1C514.105 0.723858 513.881 0.5 513.605 0.5V1.5ZM521.552 0.5C521.276 0.5 521.052 0.723858 521.052 1C521.052 1.27614 521.276 1.5 521.552 1.5V0.5ZM529.5 1.5C529.776 1.5 530 1.27614 530 1C530 0.723858 529.776 0.5 529.5 0.5V1.5ZM537.447 0.5C537.171 0.5 536.947 0.723858 536.947 1C536.947 1.27614 537.171 1.5 537.447 1.5V0.5ZM545.395 1.5C545.671 1.5 545.895 1.27614 545.895 1C545.895 0.723858 545.671 0.5 545.395 0.5V1.5ZM553.342 0.5C553.066 0.5 552.842 0.723858 552.842 1C552.842 1.27614 553.066 1.5 553.342 1.5V0.5ZM561.289 1.5C561.565 1.5 561.789 1.27614 561.789 1C561.789 0.723858 561.565 0.5 561.289 0.5V1.5ZM569.237 0.5C568.961 0.5 568.737 0.723858 568.737 1C568.737 1.27614 568.961 1.5 569.237 1.5V0.5ZM577.184 1.5C577.46 1.5 577.684 1.27614 577.684 1C577.684 0.723858 577.46 0.5 577.184 0.5V1.5ZM585.131 0.5C584.855 0.5 584.631 0.723858 584.631 1C584.631 1.27614 584.855 1.5 585.131 1.5V0.5ZM593.079 1.5C593.355 1.5 593.579 1.27614 593.579 1C593.579 0.723858 593.355 0.5 593.079 0.5V1.5ZM601.026 0.5C600.75 0.5 600.526 0.723858 600.526 1C600.526 1.27614 600.75 1.5 601.026 1.5V0.5ZM1 1.5H4.97368V0.5H1V1.5ZM12.9211 1.5H20.8684V0.5H12.9211V1.5ZM28.8158 1.5H36.7632V0.5H28.8158V1.5ZM44.7105 1.5H52.6579V0.5H44.7105V1.5ZM60.6053 1.5H68.5526V0.5H60.6053V1.5ZM76.5 1.5H84.4474V0.5H76.5V1.5ZM92.3947 1.5H100.342V0.5H92.3947V1.5ZM108.289 1.5H116.237V0.5H108.289V1.5ZM124.184 1.5H132.132V0.5H124.184V1.5ZM140.079 1.5H148.026V0.5H140.079V1.5ZM155.974 1.5H163.921V0.5H155.974V1.5ZM171.868 1.5H179.816V0.5H171.868V1.5ZM187.763 1.5H195.711V0.5H187.763V1.5ZM203.658 1.5H211.605V0.5H203.658V1.5ZM219.553 1.5H227.5V0.5H219.553V1.5ZM235.447 1.5H243.395V0.5H235.447V1.5ZM251.342 1.5H259.29V0.5H251.342V1.5ZM267.237 1.5H275.184V0.5H267.237V1.5ZM283.132 1.5H291.079V0.5H283.132V1.5ZM299.026 1.5H306.974V0.5H299.026V1.5ZM314.921 1.5H322.868V0.5H314.921V1.5ZM330.816 1.5H338.763V0.5H330.816V1.5ZM346.71 1.5H354.658V0.5H346.71V1.5ZM362.605 1.5H370.553V0.5H362.605V1.5ZM378.5 1.5H386.447V0.5H378.5V1.5ZM394.395 1.5H402.342V0.5H394.395V1.5ZM410.289 1.5H418.237V0.5H410.289V1.5ZM426.184 1.5H434.131V0.5H426.184V1.5ZM442.079 1.5H450.026V0.5H442.079V1.5ZM457.973 1.5H465.921V0.5H457.973V1.5ZM473.868 1.5H481.816V0.5H473.868V1.5ZM489.763 1.5H497.71V0.5H489.763V1.5ZM505.658 1.5H513.605V0.5H505.658V1.5ZM521.552 1.5H529.5V0.5H521.552V1.5ZM537.447 1.5H545.395V0.5H537.447V1.5ZM553.342 1.5H561.289V0.5H553.342V1.5ZM569.237 1.5H577.184V0.5H569.237V1.5ZM585.131 1.5H593.079V0.5H585.131V1.5ZM601.026 1.5H605V0.5H601.026V1.5Z" fill="#AAAAAA"/>
</svg>
