<svg xmlns="http://www.w3.org/2000/svg" xmlns:xlink="http://www.w3.org/1999/xlink" width="1000" zoomAndPan="magnify" viewBox="0 0 750 749.999995" height="1000" preserveAspectRatio="xMidYMid meet" version="1.0"><defs><clipPath id="d0edee842c"><path d="M 47.128906 3 L 716.878906 3 L 716.878906 736.5 L 47.128906 736.5 Z M 47.128906 3 " clip-rule="nonzero"/></clipPath></defs><g clip-path="url(#d0edee842c)"><path fill="#000000" d="M 418.917969 365.078125 L 433.429688 330.726562 C 429.546875 327.15625 425.859375 323.390625 422.371094 319.429688 L 387.941406 333.46875 C 384.5 334.902344 380.917969 335.605469 377.195312 335.589844 C 375.789062 335.59375 374.386719 335.492188 372.996094 335.289062 C 371.601562 335.085938 370.234375 334.777344 368.886719 334.371094 C 367.539062 333.964844 366.230469 333.460938 364.957031 332.859375 C 363.683594 332.261719 362.460938 331.570312 361.292969 330.789062 C 360.121094 330.007812 359.015625 329.144531 357.972656 328.199219 C 356.929688 327.253906 355.964844 326.238281 355.070312 325.148438 C 354.179688 324.058594 353.371094 322.910156 352.648438 321.703125 C 351.929688 320.496094 351.300781 319.242188 350.761719 317.941406 L 334.449219 277.9375 C 334.101562 277.070312 333.800781 276.1875 333.539062 275.292969 C 333.28125 274.394531 333.066406 273.488281 332.894531 272.570312 C 332.722656 271.652344 332.597656 270.726562 332.515625 269.796875 C 332.4375 268.867188 332.402344 267.933594 332.410156 267 C 332.421875 266.066406 332.476562 265.136719 332.578125 264.207031 C 332.679688 263.277344 332.824219 262.355469 333.015625 261.441406 C 333.207031 260.527344 333.441406 259.625 333.722656 258.734375 C 334 257.84375 334.324219 256.96875 334.6875 256.109375 C 335.050781 255.25 335.457031 254.40625 335.90625 253.585938 C 336.351562 252.765625 336.835938 251.972656 337.359375 251.199219 C 337.882812 250.425781 338.445312 249.679688 339.042969 248.960938 C 339.640625 248.242188 340.269531 247.554688 340.933594 246.898438 C 341.597656 246.242188 342.292969 245.621094 343.015625 245.03125 C 343.742188 244.441406 344.492188 243.890625 345.273438 243.375 C 346.050781 242.859375 346.851562 242.382812 347.679688 241.945312 C 348.503906 241.507812 349.347656 241.113281 350.210938 240.757812 L 384.566406 226.71875 C 384.28125 221.433594 384.304688 216.152344 384.644531 210.875 L 350.449219 196.519531 C 349.589844 196.160156 348.746094 195.757812 347.925781 195.3125 C 347.105469 194.871094 346.308594 194.390625 345.535156 193.867188 C 344.761719 193.347656 344.015625 192.789062 343.296875 192.195312 C 342.578125 191.601562 341.890625 190.972656 341.234375 190.3125 C 340.574219 189.652344 339.953125 188.960938 339.363281 188.238281 C 338.773438 187.515625 338.21875 186.765625 337.703125 185.988281 C 337.1875 185.210938 336.707031 184.414062 336.269531 183.589844 C 335.832031 182.765625 335.4375 181.921875 335.078125 181.0625 C 334.722656 180.199219 334.410156 179.320312 334.140625 178.429688 C 333.871094 177.535156 333.644531 176.632812 333.464844 175.71875 C 333.285156 174.804688 333.148438 173.882812 333.054688 172.953125 C 332.964844 172.023438 332.917969 171.09375 332.917969 170.164062 C 332.917969 169.230469 332.964844 168.300781 333.054688 167.371094 C 333.144531 166.441406 333.28125 165.523438 333.460938 164.605469 C 333.644531 163.691406 333.867188 162.789062 334.136719 161.894531 C 334.40625 161.003906 334.71875 160.125 335.074219 159.261719 L 351.9375 119.417969 C 352.476562 118.125 353.105469 116.878906 353.828125 115.679688 C 354.550781 114.480469 355.359375 113.34375 356.25 112.261719 C 357.140625 111.183594 358.105469 110.171875 359.148438 109.238281 C 360.1875 108.300781 361.289062 107.445312 362.457031 106.667969 C 363.625 105.894531 364.839844 105.210938 366.109375 104.617188 C 367.375 104.023438 368.679688 103.523438 370.023438 103.121094 C 371.363281 102.71875 372.726562 102.417969 374.113281 102.21875 C 375.5 102.019531 376.890625 101.921875 378.292969 101.925781 C 382.050781 101.914062 385.65625 102.644531 389.113281 104.125 L 423.46875 118.632812 C 426.992188 114.726562 430.734375 111.039062 434.6875 107.570312 C 435.136719 107.136719 418.429688 62.316406 418.683594 62.394531 C 407.519531 59.054688 396.144531 56.726562 384.5625 55.40625 C 372.980469 54.089844 361.375 53.804688 349.742188 54.550781 C 251.074219 60.671875 170.835938 141.148438 165.03125 239.820312 C 164.292969 252.074219 164.683594 264.289062 166.199219 276.472656 C 167.714844 288.652344 170.332031 300.59375 174.050781 312.292969 C 180.015625 330.984375 188.617188 348.371094 199.855469 364.453125 C 217.484375 389.707031 243.472656 405.324219 262.257812 429.042969 C 288.371094 462.011719 290.597656 498.75 290.597656 538.894531 L 434.136719 538.894531 L 434.136719 508.617188 C 434.136719 474.417969 448.332031 442.417969 472.253906 418.335938 L 434.292969 402.339844 C 433.433594 401.976562 432.597656 401.570312 431.78125 401.125 C 430.964844 400.679688 430.167969 400.191406 429.398438 399.667969 C 428.628906 399.144531 427.886719 398.585938 427.167969 397.992188 C 426.453125 397.394531 425.769531 396.765625 425.113281 396.105469 C 424.457031 395.441406 423.835938 394.75 423.25 394.027344 C 422.660156 393.304688 422.109375 392.554688 421.597656 391.78125 C 421.082031 391.003906 420.605469 390.203125 420.167969 389.382812 C 419.730469 388.558594 419.335938 387.71875 418.980469 386.855469 C 418.625 385.996094 418.3125 385.121094 418.042969 384.226562 C 417.773438 383.335938 417.546875 382.433594 417.363281 381.519531 C 417.179688 380.609375 417.042969 379.6875 416.949219 378.761719 C 416.859375 377.835938 416.808594 376.90625 416.808594 375.972656 C 416.804688 375.042969 416.847656 374.113281 416.933594 373.1875 C 417.023438 372.257812 417.15625 371.339844 417.332031 370.425781 C 417.511719 369.511719 417.730469 368.605469 417.996094 367.714844 C 418.261719 366.820312 418.570312 365.941406 418.917969 365.078125 Z M 235.230469 333.46875 C 234.550781 333.839844 233.839844 334.136719 233.097656 334.367188 C 232.359375 334.59375 231.601562 334.746094 230.832031 334.824219 C 230.0625 334.902344 229.289062 334.902344 228.519531 334.828125 C 227.746094 334.75 226.992188 334.601562 226.25 334.375 C 225.511719 334.148438 224.796875 333.851562 224.117188 333.484375 C 223.433594 333.113281 222.796875 332.683594 222.199219 332.1875 C 221.605469 331.695312 221.0625 331.144531 220.574219 330.542969 C 220.089844 329.941406 219.667969 329.292969 219.308594 328.609375 C 212.4375 315.765625 207.367188 302.25 204.09375 288.054688 C 203.929688 287.304688 203.835938 286.542969 203.820312 285.773438 C 203.804688 285.003906 203.863281 284.238281 203.996094 283.480469 C 204.128906 282.722656 204.335938 281.984375 204.613281 281.265625 C 204.890625 280.546875 205.234375 279.863281 205.648438 279.210938 C 206.058594 278.5625 206.53125 277.957031 207.0625 277.398438 C 207.589844 276.839844 208.171875 276.339844 208.800781 275.894531 C 209.429688 275.449219 210.09375 275.070312 210.796875 274.753906 C 211.5 274.441406 212.226562 274.199219 212.976562 274.027344 C 213.730469 273.855469 214.488281 273.757812 215.257812 273.734375 C 216.027344 273.714844 216.792969 273.765625 217.554688 273.890625 C 218.3125 274.019531 219.050781 274.21875 219.773438 274.492188 C 220.492188 274.765625 221.179688 275.105469 221.835938 275.511719 C 222.488281 275.917969 223.097656 276.382812 223.660156 276.910156 C 224.21875 277.4375 224.726562 278.011719 225.175781 278.636719 C 225.625 279.261719 226.011719 279.925781 226.328125 280.625 C 226.648438 281.328125 226.898438 282.050781 227.074219 282.800781 C 229.839844 294.976562 234.179688 306.558594 240.09375 317.546875 C 240.457031 318.230469 240.75 318.941406 240.972656 319.683594 C 241.195312 320.421875 241.34375 321.175781 241.417969 321.945312 C 241.492188 322.714844 241.488281 323.484375 241.410156 324.253906 C 241.332031 325.023438 241.183594 325.777344 240.957031 326.515625 C 240.730469 327.253906 240.433594 327.964844 240.070312 328.644531 C 239.703125 329.328125 239.277344 329.964844 238.785156 330.5625 C 238.292969 331.160156 237.75 331.703125 237.152344 332.191406 C 236.550781 332.679688 235.914062 333.105469 235.230469 333.46875 Z M 307.9375 124.355469 C 259.855469 145.378906 226.757812 192.125 223.773438 243.34375 C 223.730469 244.085938 223.617188 244.816406 223.433594 245.535156 C 223.25 246.257812 223 246.953125 222.683594 247.628906 C 222.367188 248.300781 221.992188 248.9375 221.554688 249.539062 C 221.117188 250.144531 220.628906 250.699219 220.085938 251.207031 C 219.546875 251.71875 218.960938 252.171875 218.332031 252.570312 C 217.707031 252.96875 217.046875 253.304688 216.355469 253.578125 C 215.664062 253.851562 214.953125 254.058594 214.222656 254.195312 C 213.492188 254.335938 212.753906 254.402344 212.007812 254.402344 L 211.304688 254.402344 C 210.53125 254.355469 209.769531 254.238281 209.019531 254.042969 C 208.269531 253.84375 207.546875 253.578125 206.851562 253.242188 C 206.15625 252.902344 205.5 252.5 204.882812 252.03125 C 204.265625 251.566406 203.699219 251.042969 203.1875 250.460938 C 202.671875 249.882812 202.21875 249.257812 201.828125 248.589844 C 201.441406 247.921875 201.117188 247.222656 200.867188 246.488281 C 200.613281 245.757812 200.433594 245.007812 200.332031 244.242188 C 200.226562 243.472656 200.199219 242.703125 200.246094 241.929688 C 203.773438 181.929688 242.363281 127.335938 298.519531 102.789062 C 299.230469 102.480469 299.960938 102.242188 300.714844 102.078125 C 301.46875 101.914062 302.234375 101.824219 303.003906 101.808594 C 303.777344 101.796875 304.542969 101.855469 305.304688 101.992188 C 306.0625 102.128906 306.804688 102.339844 307.523438 102.621094 C 308.242188 102.902344 308.925781 103.253906 309.574219 103.671875 C 310.226562 104.085938 310.828125 104.5625 311.386719 105.101562 C 311.941406 105.636719 312.441406 106.222656 312.882812 106.855469 C 313.320312 107.488281 313.695312 108.160156 314.007812 108.867188 C 314.316406 109.574219 314.550781 110.308594 314.714844 111.0625 C 314.882812 111.816406 314.972656 112.578125 314.984375 113.351562 C 315 114.125 314.941406 114.890625 314.804688 115.648438 C 314.667969 116.410156 314.457031 117.148438 314.175781 117.871094 C 313.894531 118.589844 313.542969 119.273438 313.128906 119.921875 C 312.710938 120.574219 312.234375 121.175781 311.699219 121.734375 C 311.164062 122.289062 310.578125 122.789062 309.945312 123.230469 C 309.3125 123.671875 308.640625 124.046875 307.933594 124.355469 Z M 460.648438 567.449219 L 460.648438 608.234375 L 264.09375 608.234375 L 264.09375 567.449219 C 264.09375 566.917969 264.148438 566.386719 264.25 565.863281 C 264.355469 565.339844 264.511719 564.832031 264.71875 564.339844 C 264.921875 563.847656 265.175781 563.382812 265.472656 562.9375 C 265.773438 562.496094 266.109375 562.085938 266.488281 561.710938 C 266.867188 561.335938 267.28125 561 267.726562 560.707031 C 268.171875 560.414062 268.640625 560.167969 269.136719 559.964844 C 269.628906 559.765625 270.140625 559.613281 270.664062 559.515625 C 271.1875 559.414062 271.71875 559.367188 272.25 559.371094 L 452.570312 559.371094 C 453.097656 559.371094 453.625 559.421875 454.144531 559.527344 C 454.667969 559.628906 455.171875 559.78125 455.660156 559.984375 C 456.152344 560.1875 456.617188 560.4375 457.058594 560.730469 C 457.5 561.027344 457.910156 561.359375 458.285156 561.734375 C 458.660156 562.109375 458.992188 562.519531 459.289062 562.960938 C 459.582031 563.402344 459.832031 563.867188 460.035156 564.355469 C 460.238281 564.847656 460.390625 565.351562 460.492188 565.875 C 460.597656 566.394531 460.648438 566.917969 460.648438 567.449219 Z M 264.09375 628.621094 L 460.648438 628.621094 L 460.648438 669.40625 C 460.648438 669.9375 460.597656 670.464844 460.492188 670.984375 C 460.390625 671.503906 460.238281 672.011719 460.035156 672.5 C 459.832031 672.992188 459.582031 673.457031 459.289062 673.898438 C 458.996094 674.339844 458.660156 674.746094 458.285156 675.121094 C 457.910156 675.496094 457.5 675.832031 457.058594 676.128906 C 456.617188 676.421875 456.152344 676.671875 455.660156 676.875 C 455.171875 677.078125 454.667969 677.230469 454.144531 677.332031 C 453.625 677.4375 453.097656 677.488281 452.570312 677.488281 L 272.25 677.488281 C 271.71875 677.492188 271.1875 677.445312 270.664062 677.34375 C 270.140625 677.242188 269.628906 677.09375 269.136719 676.894531 C 268.640625 676.691406 268.171875 676.445312 267.726562 676.152344 C 267.28125 675.855469 266.867188 675.523438 266.488281 675.144531 C 266.109375 674.769531 265.773438 674.363281 265.472656 673.917969 C 265.175781 673.476562 264.921875 673.007812 264.71875 672.515625 C 264.511719 672.023438 264.355469 671.515625 264.25 670.992188 C 264.148438 670.46875 264.09375 669.941406 264.09375 669.40625 Z M 296.40625 697.875 L 428.335938 697.875 C 428.273438 699.164062 428.152344 700.445312 427.96875 701.722656 C 427.785156 703 427.539062 704.261719 427.238281 705.515625 C 426.933594 706.769531 426.570312 708.003906 426.148438 709.222656 C 425.726562 710.441406 425.246094 711.636719 424.710938 712.808594 C 424.175781 713.980469 423.585938 715.125 422.941406 716.242188 C 422.296875 717.359375 421.601562 718.441406 420.851562 719.492188 C 420.105469 720.542969 419.308594 721.554688 418.464844 722.53125 C 417.621094 723.503906 416.730469 724.4375 415.800781 725.324219 C 414.867188 726.214844 413.894531 727.058594 412.878906 727.855469 C 411.867188 728.652344 410.816406 729.398438 409.734375 730.097656 C 408.648438 730.792969 407.535156 731.4375 406.386719 732.027344 C 405.242188 732.621094 404.070312 733.15625 402.875 733.632812 C 401.675781 734.113281 400.460938 734.535156 399.222656 734.898438 C 397.988281 735.261719 396.734375 735.566406 395.46875 735.808594 C 394.203125 736.054688 392.929688 736.238281 391.644531 736.359375 C 390.363281 736.484375 389.074219 736.546875 387.785156 736.546875 L 336.957031 736.546875 C 335.667969 736.546875 334.382812 736.484375 333.097656 736.359375 C 331.816406 736.238281 330.542969 736.054688 329.273438 735.808594 C 328.007812 735.566406 326.757812 735.261719 325.519531 734.898438 C 324.285156 734.535156 323.066406 734.113281 321.871094 733.632812 C 320.671875 733.15625 319.503906 732.621094 318.355469 732.027344 C 317.210938 731.4375 316.097656 730.792969 315.011719 730.097656 C 313.925781 729.398438 312.878906 728.652344 311.863281 727.855469 C 310.851562 727.058594 309.878906 726.214844 308.945312 725.324219 C 308.011719 724.4375 307.125 723.503906 306.277344 722.53125 C 305.433594 721.554688 304.640625 720.542969 303.890625 719.492188 C 303.144531 718.441406 302.445312 717.359375 301.800781 716.242188 C 301.15625 715.125 300.566406 713.980469 300.03125 712.808594 C 299.496094 711.636719 299.015625 710.441406 298.597656 709.222656 C 298.175781 708.003906 297.8125 706.769531 297.507812 705.515625 C 297.203125 704.261719 296.957031 703 296.773438 701.722656 C 296.589844 700.445312 296.46875 699.164062 296.40625 697.875 Z M 710.699219 261.648438 L 662.382812 241.253906 C 664.792969 227.359375 664.871094 213.449219 662.621094 199.527344 L 711.085938 179.761719 C 711.589844 179.5625 712.0625 179.316406 712.515625 179.019531 C 712.96875 178.726562 713.386719 178.394531 713.773438 178.015625 C 714.15625 177.640625 714.503906 177.230469 714.808594 176.785156 C 715.113281 176.339844 715.371094 175.871094 715.582031 175.375 C 715.792969 174.878906 715.953125 174.367188 716.0625 173.839844 C 716.171875 173.3125 716.230469 172.78125 716.234375 172.242188 C 716.238281 171.703125 716.191406 171.167969 716.089844 170.640625 C 715.992188 170.109375 715.839844 169.59375 715.636719 169.097656 L 699.40625 129.25 C 699.203125 128.75 698.957031 128.273438 698.664062 127.824219 C 698.371094 127.371094 698.035156 126.957031 697.65625 126.570312 C 697.277344 126.1875 696.867188 125.84375 696.421875 125.542969 C 695.976562 125.242188 695.503906 124.988281 695.007812 124.78125 C 694.511719 124.570312 694 124.414062 693.472656 124.308594 C 692.945312 124.203125 692.414062 124.148438 691.875 124.148438 C 691.335938 124.148438 690.804688 124.203125 690.277344 124.308594 C 689.746094 124.414062 689.234375 124.574219 688.738281 124.78125 L 640.183594 144.542969 C 632.074219 133.007812 622.296875 123.125 610.847656 114.894531 L 631.167969 66.578125 C 631.382812 66.082031 631.550781 65.574219 631.664062 65.046875 C 631.777344 64.519531 631.839844 63.988281 631.847656 63.449219 C 631.855469 62.910156 631.808594 62.375 631.710938 61.847656 C 631.613281 61.316406 631.460938 60.800781 631.261719 60.300781 C 631.0625 59.800781 630.8125 59.324219 630.515625 58.875 C 630.222656 58.425781 629.886719 58.007812 629.507812 57.625 C 629.128906 57.238281 628.714844 56.898438 628.269531 56.597656 C 627.820312 56.292969 627.351562 56.039062 626.851562 55.832031 L 587.246094 39.125 C 586.75 38.914062 586.234375 38.753906 585.707031 38.644531 C 585.179688 38.53125 584.644531 38.476562 584.105469 38.472656 C 583.566406 38.46875 583.03125 38.515625 582.5 38.617188 C 581.96875 38.71875 581.453125 38.875 580.953125 39.078125 C 580.453125 39.28125 579.980469 39.535156 579.53125 39.832031 C 579.082031 40.128906 578.664062 40.46875 578.28125 40.851562 C 577.898438 41.234375 577.558594 41.648438 577.257812 42.097656 C 576.957031 42.546875 576.707031 43.019531 576.5 43.519531 L 556.109375 91.757812 C 542.207031 89.414062 528.296875 89.363281 514.378906 91.597656 L 494.617188 43.046875 C 494.414062 42.550781 494.167969 42.074219 493.871094 41.625 C 493.574219 41.175781 493.238281 40.761719 492.863281 40.378906 C 492.484375 39.996094 492.074219 39.652344 491.628906 39.351562 C 491.183594 39.050781 490.710938 38.796875 490.214844 38.589844 C 489.71875 38.382812 489.207031 38.222656 488.679688 38.117188 C 488.152344 38.011719 487.621094 37.957031 487.085938 37.957031 C 486.546875 37.957031 486.015625 38.007812 485.488281 38.113281 C 484.960938 38.21875 484.449219 38.375 483.949219 38.578125 L 444.105469 54.734375 C 443.605469 54.945312 443.132812 55.199219 442.6875 55.5 C 442.238281 55.800781 441.824219 56.140625 441.441406 56.523438 C 441.058594 56.90625 440.714844 57.320312 440.414062 57.765625 C 440.113281 58.214844 439.855469 58.6875 439.644531 59.183594 C 439.433594 59.679688 439.273438 60.191406 439.164062 60.722656 C 439.050781 61.25 438.992188 61.785156 438.984375 62.324219 C 438.976562 62.863281 439.019531 63.398438 439.117188 63.929688 C 439.214844 64.460938 439.359375 64.976562 439.554688 65.480469 L 441.75 70.8125 L 459.320312 114.03125 C 447.785156 122.140625 437.902344 131.921875 429.671875 143.367188 L 381.4375 122.972656 C 380.941406 122.765625 380.425781 122.609375 379.898438 122.503906 C 379.371094 122.394531 378.839844 122.339844 378.300781 122.339844 C 377.761719 122.335938 377.226562 122.386719 376.699219 122.488281 C 376.167969 122.59375 375.65625 122.746094 375.15625 122.949219 C 374.660156 123.152344 374.183594 123.402344 373.734375 123.699219 C 373.285156 123.996094 372.867188 124.335938 372.484375 124.714844 C 372.101562 125.09375 371.761719 125.503906 371.457031 125.953125 C 371.15625 126.398438 370.898438 126.867188 370.691406 127.363281 L 353.984375 166.976562 C 353.773438 167.472656 353.613281 167.984375 353.5 168.511719 C 353.390625 169.042969 353.332031 169.574219 353.328125 170.117188 C 353.324219 170.65625 353.375 171.191406 353.476562 171.722656 C 353.578125 172.25 353.730469 172.765625 353.9375 173.265625 C 354.140625 173.765625 354.390625 174.242188 354.691406 174.691406 C 354.988281 175.140625 355.328125 175.554688 355.710938 175.9375 C 356.089844 176.320312 356.503906 176.664062 356.953125 176.960938 C 357.402344 177.261719 357.878906 177.515625 358.375 177.722656 L 406.613281 198.042969 C 404.207031 211.964844 404.125 225.898438 406.378906 239.847656 L 357.90625 259.613281 C 357.410156 259.816406 356.933594 260.066406 356.484375 260.363281 C 356.035156 260.65625 355.621094 260.996094 355.238281 261.371094 C 354.855469 261.75 354.511719 262.160156 354.207031 262.601562 C 353.90625 263.046875 353.648438 263.515625 353.4375 264.011719 C 353.226562 264.503906 353.066406 265.015625 352.953125 265.542969 C 352.84375 266.066406 352.785156 266.601562 352.777344 267.136719 C 352.769531 267.675781 352.816406 268.207031 352.914062 268.738281 C 353.011719 269.265625 353.160156 269.78125 353.355469 270.28125 L 369.59375 310.125 C 369.796875 310.621094 370.046875 311.09375 370.34375 311.539062 C 370.644531 311.984375 370.980469 312.398438 371.359375 312.777344 C 371.738281 313.160156 372.148438 313.5 372.59375 313.796875 C 373.039062 314.097656 373.507812 314.351562 374.003906 314.558594 C 374.496094 314.765625 375.007812 314.921875 375.535156 315.03125 C 376.058594 315.136719 376.589844 315.191406 377.125 315.195312 C 377.664062 315.199219 378.195312 315.148438 378.722656 315.046875 C 379.25 314.945312 379.761719 314.792969 380.257812 314.59375 L 428.808594 294.828125 C 436.957031 306.34375 446.734375 316.253906 458.140625 324.554688 L 437.820312 372.792969 C 437.613281 373.289062 437.457031 373.800781 437.351562 374.328125 C 437.242188 374.859375 437.1875 375.390625 437.1875 375.929688 C 437.183594 376.46875 437.234375 377.003906 437.335938 377.53125 C 437.441406 378.058594 437.59375 378.574219 437.796875 379.070312 C 438 379.570312 438.253906 380.042969 438.550781 380.496094 C 438.847656 380.945312 439.183594 381.359375 439.5625 381.742188 C 439.941406 382.125 440.355469 382.46875 440.800781 382.769531 C 441.246094 383.074219 441.71875 383.328125 442.214844 383.539062 L 481.824219 400.242188 C 482.320312 400.449219 482.832031 400.609375 483.359375 400.714844 C 483.886719 400.820312 484.421875 400.875 484.960938 400.878906 C 485.5 400.882812 486.03125 400.832031 486.5625 400.726562 C 487.089844 400.625 487.605469 400.472656 488.101562 400.269531 C 488.601562 400.0625 489.074219 399.8125 489.523438 399.515625 C 489.972656 399.21875 490.390625 398.882812 490.773438 398.503906 C 491.15625 398.125 491.5 397.710938 491.800781 397.265625 C 492.101562 396.820312 492.359375 396.347656 492.566406 395.851562 L 512.886719 347.535156 C 519.964844 348.851562 527.101562 349.503906 534.300781 349.496094 C 541.117188 349.5 547.890625 348.953125 554.621094 347.847656 L 574.386719 396.320312 C 574.597656 396.816406 574.851562 397.289062 575.152344 397.738281 C 575.457031 398.183594 575.796875 398.597656 576.179688 398.980469 C 576.558594 399.359375 576.976562 399.703125 577.421875 400.003906 C 577.871094 400.304688 578.339844 400.558594 578.839844 400.769531 C 579.335938 400.980469 579.847656 401.140625 580.375 401.253906 C 580.902344 401.363281 581.433594 401.425781 581.972656 401.433594 C 582.511719 401.441406 583.046875 401.398438 583.578125 401.304688 C 584.109375 401.210938 584.628906 401.066406 585.128906 400.871094 L 624.972656 384.554688 C 625.472656 384.355469 625.945312 384.105469 626.394531 383.8125 C 626.84375 383.515625 627.257812 383.179688 627.640625 382.800781 C 628.023438 382.421875 628.367188 382.011719 628.667969 381.566406 C 628.96875 381.121094 629.222656 380.648438 629.429688 380.15625 C 629.636719 379.660156 629.792969 379.148438 629.902344 378.621094 C 630.007812 378.09375 630.0625 377.5625 630.0625 377.023438 C 630.0625 376.488281 630.011719 375.953125 629.90625 375.425781 C 629.800781 374.898438 629.648438 374.386719 629.441406 373.890625 L 609.675781 325.417969 C 621.199219 317.242188 631.105469 307.4375 639.402344 296.003906 L 687.640625 316.324219 C 688.132812 316.539062 688.644531 316.703125 689.167969 316.816406 C 689.695312 316.925781 690.226562 316.988281 690.765625 316.996094 C 691.304688 317 691.839844 316.957031 692.367188 316.859375 C 692.898438 316.757812 693.410156 316.609375 693.910156 316.410156 C 694.410156 316.207031 694.886719 315.960938 695.335938 315.667969 C 695.785156 315.371094 696.203125 315.035156 696.585938 314.65625 C 696.972656 314.28125 697.316406 313.871094 697.617188 313.421875 C 697.917969 312.976562 698.175781 312.507812 698.382812 312.011719 L 715.089844 272.402344 C 715.300781 271.90625 715.457031 271.390625 715.566406 270.863281 C 715.671875 270.335938 715.726562 269.800781 715.730469 269.261719 C 715.730469 268.722656 715.683594 268.1875 715.578125 267.660156 C 715.476562 267.128906 715.324219 266.617188 715.121094 266.117188 C 714.914062 265.617188 714.664062 265.140625 714.367188 264.691406 C 714.070312 264.242188 713.730469 263.824219 713.351562 263.441406 C 712.972656 263.058594 712.5625 262.714844 712.113281 262.414062 C 711.667969 262.113281 711.195312 261.855469 710.699219 261.648438 Z M 600.585938 224.398438 C 598.511719 250.671875 581.835938 275.761719 553.359375 284.078125 C 528.453125 291.355469 500.933594 282.804688 483.792969 263.613281 C 465.199219 242.789062 462.488281 210.785156 476.109375 186.675781 C 495.742188 151.921875 543.121094 142.070312 574.988281 166.160156 C 594.253906 180.71875 602.28125 202.953125 600.585938 224.398438 Z M 262.839844 513.324219 L 237.898438 487.28125 C 229.492188 492.210938 220.523438 495.6875 210.992188 497.714844 L 210.210938 533.875 C 210.203125 534.246094 210.15625 534.613281 210.074219 534.972656 C 209.992188 535.335938 209.878906 535.6875 209.726562 536.027344 C 209.578125 536.367188 209.394531 536.6875 209.179688 536.992188 C 208.964844 537.292969 208.722656 537.574219 208.453125 537.828125 C 208.183594 538.082031 207.890625 538.308594 207.574219 538.507812 C 207.261719 538.703125 206.929688 538.871094 206.582031 539 C 206.234375 539.132812 205.878906 539.230469 205.511719 539.289062 C 205.144531 539.351562 204.777344 539.375 204.40625 539.363281 L 174.679688 538.734375 C 174.308594 538.722656 173.945312 538.675781 173.582031 538.59375 C 173.222656 538.507812 172.871094 538.390625 172.535156 538.238281 C 172.199219 538.085938 171.878906 537.902344 171.574219 537.6875 C 171.273438 537.476562 170.996094 537.234375 170.742188 536.964844 C 170.484375 536.695312 170.261719 536.402344 170.0625 536.089844 C 169.863281 535.777344 169.699219 535.445312 169.566406 535.101562 C 169.433594 534.753906 169.335938 534.398438 169.273438 534.035156 C 169.207031 533.671875 169.179688 533.300781 169.1875 532.933594 L 169.972656 496.773438 C 165.394531 495.644531 160.953125 494.128906 156.640625 492.222656 C 152.089844 490.257812 147.75 487.902344 143.621094 485.160156 L 117.5 510.183594 C 117.230469 510.4375 116.9375 510.660156 116.625 510.855469 C 116.308594 511.050781 115.980469 511.214844 115.636719 511.347656 C 115.289062 511.480469 114.933594 511.578125 114.570312 511.640625 C 114.207031 511.703125 113.839844 511.730469 113.46875 511.722656 C 113.101562 511.71875 112.734375 511.675781 112.375 511.597656 C 112.011719 511.519531 111.660156 511.40625 111.320312 511.261719 C 110.980469 511.117188 110.65625 510.941406 110.351562 510.734375 C 110.046875 510.527344 109.761719 510.292969 109.5 510.027344 L 88.949219 488.535156 C 88.695312 488.265625 88.472656 487.972656 88.277344 487.660156 C 88.082031 487.347656 87.917969 487.015625 87.785156 486.671875 C 87.652344 486.324219 87.554688 485.972656 87.492188 485.605469 C 87.429688 485.242188 87.402344 484.875 87.410156 484.503906 C 87.414062 484.136719 87.457031 483.769531 87.535156 483.410156 C 87.613281 483.046875 87.726562 482.695312 87.871094 482.355469 C 88.015625 482.015625 88.191406 481.691406 88.398438 481.386719 C 88.605469 481.082031 88.839844 480.796875 89.105469 480.535156 L 115.222656 455.515625 C 110.320312 447.128906 106.847656 438.1875 104.800781 428.691406 L 68.644531 427.828125 C 68.273438 427.824219 67.910156 427.78125 67.546875 427.703125 C 67.1875 427.628906 66.835938 427.515625 66.5 427.367188 C 66.160156 427.222656 65.839844 427.042969 65.535156 426.832031 C 65.234375 426.621094 64.953125 426.382812 64.699219 426.117188 C 64.441406 425.847656 64.214844 425.558594 64.015625 425.25 C 63.820312 424.9375 63.652344 424.609375 63.519531 424.265625 C 63.390625 423.917969 63.292969 423.566406 63.230469 423.203125 C 63.167969 422.835938 63.140625 422.472656 63.152344 422.101562 L 63.78125 392.375 C 63.792969 392.003906 63.839844 391.636719 63.921875 391.277344 C 64.007812 390.917969 64.125 390.566406 64.277344 390.230469 C 64.429688 389.890625 64.613281 389.570312 64.828125 389.269531 C 65.042969 388.96875 65.285156 388.691406 65.554688 388.433594 C 65.824219 388.179688 66.113281 387.953125 66.425781 387.757812 C 66.742188 387.558594 67.070312 387.394531 67.414062 387.261719 C 67.761719 387.128906 68.117188 387.03125 68.480469 386.964844 C 68.847656 386.902344 69.214844 386.875 69.585938 386.882812 L 105.742188 387.667969 C 108.132812 378.207031 112.003906 369.394531 117.351562 361.234375 L 92.40625 335.195312 C 92.148438 334.925781 91.914062 334.632812 91.714844 334.316406 C 91.511719 334 91.339844 333.667969 91.203125 333.320312 C 91.066406 332.972656 90.964844 332.613281 90.898438 332.242188 C 90.835938 331.875 90.804688 331.503906 90.8125 331.128906 C 90.820312 330.753906 90.863281 330.382812 90.941406 330.015625 C 91.023438 329.652344 91.140625 329.296875 91.289062 328.953125 C 91.4375 328.609375 91.621094 328.285156 91.835938 327.976562 C 92.050781 327.667969 92.292969 327.386719 92.5625 327.125 L 113.976562 306.652344 C 114.25 306.398438 114.542969 306.171875 114.859375 305.972656 C 115.175781 305.773438 115.507812 305.605469 115.855469 305.472656 C 116.207031 305.339844 116.5625 305.238281 116.929688 305.175781 C 117.300781 305.109375 117.667969 305.082031 118.042969 305.089844 C 118.417969 305.09375 118.785156 305.136719 119.152344 305.21875 C 119.515625 305.296875 119.871094 305.410156 120.214844 305.558594 C 120.558594 305.703125 120.882812 305.882812 121.191406 306.09375 C 121.5 306.304688 121.785156 306.542969 122.046875 306.808594 L 146.988281 333.007812 C 150.441406 330.914062 154.046875 329.136719 157.8125 327.675781 C 162.808594 341.308594 169.160156 354.277344 176.871094 366.578125 C 175.472656 367 174.113281 367.523438 172.792969 368.148438 C 170.640625 369.15625 168.578125 370.324219 166.601562 371.652344 C 164.628906 372.976562 162.769531 374.445312 161.019531 376.058594 C 159.273438 377.671875 157.660156 379.410156 156.179688 381.269531 C 154.699219 383.132812 153.371094 385.09375 152.195312 387.160156 C 151.015625 389.226562 150.003906 391.371094 149.15625 393.59375 C 148.308594 395.816406 147.636719 398.089844 147.140625 400.414062 C 146.640625 402.738281 146.324219 405.089844 146.191406 407.464844 C 146.054688 409.835938 146.101562 412.207031 146.332031 414.574219 C 146.5625 416.941406 146.96875 419.277344 147.558594 421.582031 C 148.148438 423.882812 148.910156 426.128906 149.84375 428.316406 C 150.78125 430.503906 151.875 432.605469 153.136719 434.621094 C 154.394531 436.640625 155.800781 438.550781 157.351562 440.351562 C 158.902344 442.152344 160.585938 443.824219 162.394531 445.367188 C 164.207031 446.90625 166.121094 448.300781 168.148438 449.550781 C 170.171875 450.796875 172.28125 451.882812 174.472656 452.804688 C 176.664062 453.726562 178.914062 454.476562 181.21875 455.050781 C 201.25 460.054688 226.625 449.15625 234.597656 429.253906 C 243.445312 437.167969 250.738281 446.316406 256.480469 456.707031 C 266.449219 474.621094 270.207031 493.800781 270.207031 514.121094 C 269.929688 514.316406 269.640625 514.488281 269.332031 514.632812 C 269.027344 514.777344 268.710938 514.890625 268.382812 514.976562 C 268.054688 515.0625 267.722656 515.117188 267.382812 515.144531 C 267.046875 515.167969 266.707031 515.164062 266.371094 515.125 C 266.035156 515.089844 265.703125 515.023438 265.378906 514.925781 C 265.054688 514.828125 264.742188 514.703125 264.4375 514.550781 C 264.136719 514.394531 263.851562 514.214844 263.582031 514.007812 C 263.3125 513.800781 263.066406 513.574219 262.839844 513.324219 Z M 83.515625 87.792969 C 83.917969 87.136719 84.382812 86.523438 84.90625 85.957031 C 85.433594 85.386719 86.007812 84.878906 86.632812 84.421875 C 87.257812 83.96875 87.921875 83.582031 88.621094 83.257812 C 89.324219 82.933594 90.050781 82.683594 90.800781 82.503906 C 91.550781 82.324219 92.3125 82.21875 93.085938 82.1875 C 93.859375 82.160156 94.625 82.203125 95.386719 82.324219 C 96.152344 82.449219 96.894531 82.640625 97.621094 82.910156 C 98.34375 83.179688 99.035156 83.515625 99.691406 83.917969 L 157.898438 119.628906 C 158.5625 120.027344 159.183594 120.488281 159.761719 121.011719 C 160.335938 121.535156 160.855469 122.109375 161.316406 122.734375 C 161.777344 123.359375 162.171875 124.027344 162.5 124.730469 C 162.832031 125.433594 163.089844 126.164062 163.273438 126.917969 C 163.457031 127.671875 163.566406 128.441406 163.601562 129.214844 C 163.632812 129.992188 163.589844 130.765625 163.46875 131.53125 C 163.351562 132.300781 163.15625 133.050781 162.886719 133.78125 C 162.621094 134.507812 162.28125 135.207031 161.875 135.867188 C 161.46875 136.53125 161 137.148438 160.472656 137.714844 C 159.945312 138.285156 159.363281 138.800781 158.734375 139.253906 C 158.105469 139.710938 157.433594 140.097656 156.726562 140.421875 C 156.019531 140.742188 155.289062 140.992188 154.53125 141.171875 C 153.773438 141.347656 153.007812 141.449219 152.230469 141.472656 C 151.453125 141.5 150.683594 141.449219 149.914062 141.320312 C 149.148438 141.191406 148.402344 140.992188 147.675781 140.714844 C 146.949219 140.4375 146.257812 140.09375 145.597656 139.679688 L 87.394531 103.96875 C 86.734375 103.5625 86.121094 103.101562 85.554688 102.574219 C 84.988281 102.050781 84.476562 101.476562 84.023438 100.851562 C 83.570312 100.226562 83.183594 99.5625 82.859375 98.863281 C 82.535156 98.160156 82.285156 97.433594 82.105469 96.683594 C 81.925781 95.933594 81.820312 95.171875 81.789062 94.402344 C 81.761719 93.628906 81.804688 92.863281 81.925781 92.097656 C 82.046875 91.335938 82.242188 90.59375 82.507812 89.867188 C 82.777344 89.144531 83.113281 88.453125 83.515625 87.792969 Z M 159.675781 20.558594 C 159.308594 19.878906 159.007812 19.171875 158.78125 18.433594 C 158.550781 17.695312 158.398438 16.941406 158.316406 16.175781 C 158.238281 15.40625 158.234375 14.640625 158.304688 13.871094 C 158.375 13.101562 158.519531 12.347656 158.742188 11.605469 C 158.960938 10.867188 159.25 10.15625 159.609375 9.472656 C 159.96875 8.789062 160.394531 8.148438 160.878906 7.546875 C 161.367188 6.945312 161.90625 6.402344 162.5 5.90625 C 163.09375 5.414062 163.730469 4.984375 164.410156 4.613281 C 165.085938 4.246094 165.796875 3.949219 166.53125 3.71875 C 167.269531 3.488281 168.023438 3.335938 168.789062 3.253906 C 169.558594 3.175781 170.328125 3.167969 171.09375 3.238281 C 171.863281 3.308594 172.617188 3.457031 173.359375 3.675781 C 174.101562 3.894531 174.8125 4.183594 175.496094 4.542969 C 176.179688 4.902344 176.820312 5.324219 177.421875 5.808594 C 178.019531 6.296875 178.566406 6.835938 179.0625 7.429688 C 179.554688 8.023438 179.988281 8.660156 180.355469 9.335938 L 212.917969 69.371094 C 213.285156 70.046875 213.582031 70.757812 213.8125 71.496094 C 214.039062 72.230469 214.195312 72.984375 214.277344 73.753906 C 214.355469 74.523438 214.363281 75.289062 214.289062 76.058594 C 214.21875 76.828125 214.074219 77.585938 213.855469 78.324219 C 213.636719 79.066406 213.347656 79.777344 212.984375 80.460938 C 212.625 81.144531 212.203125 81.785156 211.71875 82.386719 C 211.230469 82.988281 210.691406 83.535156 210.097656 84.027344 C 209.503906 84.519531 208.867188 84.953125 208.1875 85.320312 C 207.507812 85.6875 206.800781 85.988281 206.0625 86.21875 C 205.324219 86.445312 204.570312 86.601562 203.804688 86.679688 C 203.035156 86.761719 202.265625 86.765625 201.496094 86.695312 C 200.726562 86.625 199.972656 86.480469 199.230469 86.261719 C 198.492188 86.039062 197.78125 85.75 197.097656 85.390625 C 196.414062 85.03125 195.769531 84.609375 195.171875 84.121094 C 194.570312 83.636719 194.023438 83.09375 193.527344 82.5 C 193.035156 81.90625 192.605469 81.269531 192.234375 80.589844 Z M 127.03125 209.375 L 58.769531 207.550781 C 57.996094 207.53125 57.234375 207.433594 56.480469 207.265625 C 55.730469 207.09375 55 206.851562 54.292969 206.535156 C 53.589844 206.222656 52.921875 205.839844 52.289062 205.394531 C 51.660156 204.949219 51.078125 204.445312 50.546875 203.886719 C 50.015625 203.328125 49.546875 202.71875 49.132812 202.066406 C 48.722656 201.414062 48.378906 200.726562 48.101562 200.003906 C 47.824219 199.285156 47.621094 198.542969 47.488281 197.78125 C 47.359375 197.019531 47.304688 196.253906 47.324219 195.480469 C 47.335938 194.707031 47.425781 193.941406 47.589844 193.183594 C 47.757812 192.429688 47.996094 191.695312 48.308594 190.984375 C 48.617188 190.277344 48.996094 189.605469 49.441406 188.972656 C 49.890625 188.335938 50.394531 187.753906 50.953125 187.222656 C 51.515625 186.6875 52.125 186.214844 52.78125 185.804688 C 53.4375 185.394531 54.128906 185.050781 54.855469 184.777344 C 55.578125 184.503906 56.324219 184.304688 57.089844 184.179688 C 57.855469 184.054688 58.625 184.007812 59.398438 184.035156 L 127.660156 185.859375 C 128.421875 185.878906 129.179688 185.972656 129.925781 186.140625 C 130.671875 186.308594 131.398438 186.550781 132.097656 186.859375 C 132.796875 187.167969 133.460938 187.542969 134.089844 187.980469 C 134.714844 188.421875 135.292969 188.917969 135.824219 189.46875 C 136.355469 190.019531 136.828125 190.617188 137.242188 191.261719 C 137.652344 191.90625 138 192.585938 138.28125 193.296875 C 138.5625 194.007812 138.773438 194.742188 138.910156 195.496094 C 139.050781 196.25 139.113281 197.007812 139.105469 197.773438 C 139.09375 198.539062 139.011719 199.296875 138.851562 200.046875 C 138.695312 200.792969 138.464844 201.519531 138.167969 202.226562 C 137.867188 202.929688 137.5 203.597656 137.070312 204.230469 C 136.640625 204.867188 136.152344 205.453125 135.609375 205.988281 C 135.0625 206.527344 134.472656 207.007812 133.835938 207.429688 C 133.195312 207.851562 132.523438 208.210938 131.816406 208.5 C 131.105469 208.792969 130.378906 209.011719 129.625 209.160156 C 128.875 209.308594 128.117188 209.382812 127.351562 209.386719 C 127.246094 209.378906 127.136719 209.378906 127.03125 209.375 Z M 127.03125 209.375 " fill-opacity="1" fill-rule="nonzero"/></g></svg>