<svg width="20" height="20" viewBox="0 0 20 20" fill="none" xmlns="http://www.w3.org/2000/svg">
<path fill-rule="evenodd" clip-rule="evenodd" d="M11.17 1.94145C11.3527 1.9989 11.5123 2.11315 11.6256 2.26757C11.7389 2.42198 11.8 2.60852 11.8 2.80005V7.30005H15.4C15.5646 7.29997 15.7261 7.34506 15.8669 7.43039C16.0077 7.51572 16.1224 7.63803 16.1985 7.78401C16.2746 7.93 16.3092 8.09405 16.2985 8.25834C16.2878 8.42262 16.2323 8.58083 16.138 8.71575L9.83799 17.7157C9.72834 17.8728 9.57143 17.9908 9.39009 18.0526C9.20875 18.1143 9.01244 18.1166 8.82971 18.0591C8.64699 18.0016 8.48739 17.8872 8.37413 17.7327C8.26087 17.5782 8.19986 17.3916 8.19999 17.2V12.7H4.59999C4.43536 12.7001 4.27387 12.655 4.13308 12.5697C3.9923 12.4844 3.87761 12.3621 3.80151 12.2161C3.72541 12.0701 3.69081 11.906 3.70147 11.7418C3.71214 11.5775 3.76765 11.4193 3.86199 11.2843L10.162 2.28435C10.2718 2.12755 10.4287 2.00986 10.61 1.94835C10.7913 1.88685 10.9874 1.88475 11.17 1.94235" fill="#2A2A2A"/>
</svg>
