<svg width="18" height="18" viewBox="0 0 18 18" fill="none" xmlns="http://www.w3.org/2000/svg">
<g clip-path="url(#clip0_552_132)">
<path d="M2.637 15.363C1.77741 14.5328 1.09177 13.5397 0.620085 12.4416C0.148405 11.3436 -0.0998715 10.1626 -0.110256 8.96761C-0.12064 7.77259 0.107075 6.58748 0.559603 5.48141C1.01213 4.37534 1.68041 3.37048 2.52544 2.52544C3.37048 1.68041 4.37534 1.01213 5.48141 0.559603C6.58748 0.107075 7.77259 -0.12064 8.96761 -0.110256C10.1626 -0.0998715 11.3436 0.148405 12.4416 0.620085C13.5397 1.09177 14.5328 1.77741 15.363 2.637C17.0024 4.33442 17.9096 6.60784 17.8891 8.96761C17.8686 11.3274 16.922 13.5847 15.2534 15.2534C13.5847 16.922 11.3274 17.8686 8.96761 17.8891C6.60784 17.9096 4.33442 17.0024 2.637 15.363ZM14.094 14.094C15.445 12.743 16.204 10.9106 16.204 9C16.204 7.08938 15.445 5.25701 14.094 3.906C12.743 2.55499 10.9106 1.79599 9 1.79599C7.08938 1.79599 5.25701 2.55499 3.906 3.906C2.55499 5.25701 1.79599 7.08938 1.79599 9C1.79599 10.9106 2.55499 12.743 3.906 14.094C5.25701 15.445 7.08938 16.204 9 16.204C10.9106 16.204 12.743 15.445 14.094 14.094ZM6.03 8.361L8.1 10.44L11.97 6.57L13.23 7.848L8.1 12.96L4.77 9.63L6.03 8.352V8.361Z" fill="#2A2A2A"/>
</g>
<defs>
<clipPath id="clip0_552_132">
<rect width="18" height="18" fill="white"/>
</clipPath>
</defs>
</svg>
