<svg width="18" height="16" viewBox="0 0 18 16" fill="none" xmlns="http://www.w3.org/2000/svg">
<g clip-path="url(#clip0_552_116)">
<path d="M4.2462 15.7565L7.5465 12.7279C7.72456 12.6995 7.90138 12.6653 8.0766 12.6254C10.6911 12.0405 12.6 10.1961 12.6 8.01203C12.6 5.35685 9.7794 3.20481 6.3 3.20481C2.8206 3.20481 0 5.35685 0 8.01203C0 9.60563 1.0161 11.0182 2.5812 11.8931C2.62018 11.9143 2.65979 11.9346 2.7 11.954V15.1988C2.70001 15.3583 2.75351 15.5142 2.85364 15.6465C2.95378 15.7788 3.09599 15.8815 3.26207 15.9414C3.42815 16.0013 3.61053 16.0157 3.78586 15.9827C3.96119 15.9498 4.12148 15.871 4.2462 15.7565Z" fill="#2A2A2A"/>
<path d="M11.7 0C9.369 0 7.3314 0.967053 6.2424 2.40361H8.7327C9.5166 1.90927 10.548 1.60241 11.7 1.60241C14.2416 1.60241 16.2 3.09665 16.2 4.80722C16.2 5.78309 15.5691 6.71248 14.4621 7.33101L14.4297 7.34704L13.5 7.80372V10.0174L13.131 9.67854L12.1923 11.1191L13.7538 12.5517C13.8785 12.6662 14.0388 12.745 14.2141 12.7779C14.3895 12.8109 14.5719 12.7965 14.7379 12.7366C14.904 12.6767 15.0462 12.574 15.1464 12.4417C15.2465 12.3094 15.3 12.1535 15.3 11.994V8.74914C15.3402 8.7298 15.3798 8.70949 15.4188 8.68825C16.983 7.81334 18 6.40081 18 4.80722C18 2.15203 15.1794 0 11.7 0Z" fill="#2A2A2A"/>
</g>
<defs>
<clipPath id="clip0_552_116">
<rect width="18" height="16" fill="white"/>
</clipPath>
</defs>
</svg>
