<svg width="18" height="18" viewBox="0 0 18 18" fill="none" xmlns="http://www.w3.org/2000/svg">
<path d="M16 13.9C16 14.457 15.7926 14.9911 15.4234 15.3849C15.0542 15.7788 14.5534 16 14.0312 16L11.8437 16C11.3216 16 10.8208 15.7788 10.4516 15.3849C10.0824 14.9911 9.875 14.457 9.875 13.9L9.875 4.1C9.875 3.54305 10.0824 3.0089 10.4516 2.61508C10.8208 2.22125 11.3216 2 11.8438 2L14.0313 2C14.5534 2 15.0542 2.22125 15.4234 2.61508C15.7926 3.0089 16 3.54305 16 4.1L16 13.9ZM8.125 13.9C8.125 14.457 7.91758 14.9911 7.54837 15.3849C7.17915 15.7787 6.67839 16 6.15625 16L3.96875 16C3.71021 16 3.4542 15.9457 3.21534 15.8401C2.97648 15.7346 2.75945 15.5799 2.57663 15.3849C2.39382 15.1899 2.2488 14.9584 2.14986 14.7036C2.05092 14.4489 2 14.1758 2 13.9L2 7.36667C2 7.09089 2.05092 6.81781 2.14986 6.56303C2.2488 6.30825 2.39382 6.07674 2.57663 5.88174C2.75945 5.68674 2.97648 5.53205 3.21534 5.42652C3.4542 5.32098 3.71021 5.26667 3.96875 5.26667L6.15625 5.26667C6.6784 5.26667 7.17916 5.48792 7.54837 5.88174C7.91758 6.27557 8.125 6.80971 8.125 7.36667L8.125 13.9Z" fill="#2A2A2A"/>
</svg>
