<svg xmlns="http://www.w3.org/2000/svg" xmlns:xlink="http://www.w3.org/1999/xlink" width="1000" zoomAndPan="magnify" viewBox="0 0 750 749.999995" height="1000" preserveAspectRatio="xMidYMid meet" version="1.0"><defs><clipPath id="759b1cd336"><path d="M 6 3 L 750 3 L 750 747.84375 L 6 747.84375 Z M 6 3 " clip-rule="nonzero"/></clipPath></defs><g clip-path="url(#759b1cd336)"><path fill="#000000" d="M 328.414062 3.710938 C 322.214844 3.710938 316.011719 7.84375 316.011719 16.117188 L 316.011719 40.925781 C 316.011719 57.472656 340.816406 57.472656 340.816406 40.925781 L 340.816406 16.117188 C 340.816406 7.84375 334.617188 3.710938 328.414062 3.710938 Z M 173.675781 72.570312 C 164.359375 73.121094 156.695312 85.191406 165.464844 93.964844 L 183.003906 111.507812 C 194.699219 123.203125 212.238281 105.664062 200.539062 93.964844 L 183.003906 76.421875 C 180.078125 73.496094 176.785156 72.386719 173.675781 72.570312 Z M 483.175781 72.570312 C 480.070312 72.382812 476.773438 73.496094 473.847656 76.421875 L 456.3125 93.964844 C 444.617188 105.664062 462.152344 123.203125 473.847656 111.507812 L 491.386719 93.964844 C 500.160156 85.191406 492.496094 73.117188 483.175781 72.570312 Z M 328.414062 102.976562 C 260.890625 102.976562 216.820312 159.242188 216.820312 214.066406 C 216.820312 251.820312 232.3125 271.332031 250.417969 289.519531 C 259.46875 298.609375 269.285156 307.5625 277.328125 319.199219 C 283.441406 328.042969 288.304688 338.609375 290.261719 351.058594 L 316.011719 351.058594 L 316.011719 305.824219 L 282.707031 273.234375 C 274.574219 265.558594 279.929688 251.898438 291.109375 251.816406 C 294.472656 251.769531 297.726562 253.089844 300.097656 255.476562 L 328.367188 283.121094 L 356.660156 255.476562 C 359.027344 253.089844 362.28125 251.769531 365.644531 251.816406 C 376.824219 251.910156 382.203125 265.558594 374.074219 273.234375 L 340.816406 305.726562 L 340.816406 351.058594 L 366.589844 351.058594 C 368.546875 338.609375 373.199219 328.351562 379.523438 319.199219 C 387.566406 307.5625 397.386719 298.609375 406.4375 289.519531 C 424.539062 271.332031 440.035156 252.886719 440.035156 214.066406 C 440.035156 159.242188 395.9375 102.976562 328.414062 102.976562 Z M 328.414062 127.765625 C 345.320312 127.390625 345.320312 152.949219 328.414062 152.574219 C 310.660156 152.574219 293.777344 160.167969 282.003906 173.460938 C 271.152344 186.945312 251.390625 169.503906 263.425781 157.058594 C 279.898438 138.460938 303.574219 127.765625 328.414062 127.765625 Z M 253.976562 201.808594 C 260.828125 201.808594 266.378906 207.363281 266.378906 214.214844 C 266.378906 221.066406 260.828125 226.617188 253.976562 226.617188 C 247.128906 226.617188 241.574219 221.066406 241.574219 214.214844 C 241.574219 207.363281 247.128906 201.808594 253.976562 201.808594 Z M 129.980469 227.007812 C 113.4375 227.007812 113.4375 251.816406 129.980469 251.816406 L 154.785156 251.816406 C 171.324219 251.816406 171.324219 227.007812 154.785156 227.007812 Z M 502.070312 227.007812 C 485.527344 227.007812 485.527344 251.816406 502.070312 251.816406 L 526.875 251.816406 C 543.414062 251.816406 543.414062 227.007812 526.875 227.007812 Z M 638.613281 239.265625 C 631.753906 239.242188 626.175781 244.800781 626.164062 251.695312 L 626.164062 735.601562 C 626.175781 742.492188 631.753906 748.054688 638.613281 748.03125 L 737.734375 748.03125 C 744.59375 748.054688 750.171875 742.492188 750.183594 735.601562 L 750.183594 251.695312 C 750.171875 244.800781 744.59375 239.238281 737.734375 239.265625 Z M 207.542969 275.828125 C 206.832031 276.503906 206.273438 277.09375 205.578125 277.789062 C 137.636719 345.75 138.019531 455.855469 205.53125 523.523438 C 273.039062 591.191406 383.351562 591.480469 451.296875 523.523438 C 519.238281 455.5625 518.929688 345.605469 451.226562 277.789062 C 450.539062 277.101562 449.914062 276.566406 449.214844 275.902344 C 444.714844 283.519531 439.632812 290.210938 434.390625 296.132812 C 492.003906 354.53125 491.558594 448.148438 433.734375 505.980469 C 375.691406 564.039062 281.527344 564.175781 223.070312 505.980469 C 165.105469 448.277344 165.039062 354.121094 222.4375 296.011719 C 217.195312 290.085938 212.039062 283.453125 207.542969 275.828125 Z M 239.710938 313.964844 C 192.171875 362.617188 192.765625 440.398438 240.605469 488.4375 C 288.785156 536.820312 367.605469 537.015625 416.175781 488.4375 C 464.394531 440.210938 464.480469 362.5 417.09375 313.988281 C 410.449219 320.648438 404.304688 326.957031 399.921875 333.300781 C 396.078125 338.859375 393.339844 344.359375 391.832031 351.15625 C 406.746094 352.707031 406.410156 375.871094 390.425781 375.871094 L 390.425781 413.085938 C 390.425781 429.210938 380.109375 442.941406 365.574219 448.046875 L 365.574219 462.730469 C 365.574219 483.132812 349.152344 499.921875 328.4375 499.921875 C 307.789062 499.921875 291.320312 483.121094 291.304688 462.730469 C 291.304688 454.519531 291.304688 451.335938 291.304688 448.046875 C 276.777344 442.945312 266.414062 429.207031 266.402344 413.085938 C 266.402344 401.878906 266.402344 388.582031 266.402344 375.871094 C 250.417969 375.871094 249.75 352.804688 265.09375 351.203125 C 263.585938 344.410156 260.75 338.859375 256.90625 333.300781 C 252.519531 326.949219 246.367188 320.632812 239.710938 313.964844 Z M 291.207031 375.871094 C 291.207031 388.390625 291.207031 400.621094 291.207031 413.085938 C 291.214844 419.796875 296.476562 425.441406 303.5625 425.441406 L 353.265625 425.441406 C 360.0625 425.441406 365.621094 420.171875 365.621094 413.085938 L 365.621094 375.871094 Z M 526.484375 388.277344 C 526.769531 392.40625 526.921875 396.542969 526.945312 400.679688 C 526.925781 460.925781 499.550781 517.898438 452.53125 555.554688 L 452.53125 735.601562 C 452.546875 742.492188 458.125 748.054688 464.984375 748.03125 L 564.105469 748.03125 C 570.964844 748.054688 576.539062 742.492188 576.554688 735.601562 L 576.554688 400.707031 C 576.542969 393.8125 570.964844 388.25 564.105469 388.277344 Z M 316.109375 450.277344 C 316.109375 452.578125 316.109375 454.980469 316.109375 462.730469 C 316.113281 469.441406 321.378906 475.089844 328.4375 475.089844 C 335.210938 475.089844 340.769531 469.820312 340.769531 462.730469 L 340.769531 450.277344 Z M 173.433594 524.46875 L 18.625 648.277344 C 0.898438 662.632812 2.476562 692.046875 19.8125 709.382812 C 37.117188 726.691406 66.40625 728.179688 80.78125 710.546875 L 204.753906 555.601562 C 193.191406 546.421875 182.683594 535.980469 173.433594 524.46875 Z M 402.925781 584.554688 C 379.289062 594.164062 354.023438 599.125 328.511719 599.164062 C 311.765625 599.082031 295.09375 596.875 278.902344 592.601562 L 278.902344 735.601562 C 278.917969 742.492188 284.496094 748.054688 291.351562 748.03125 L 390.472656 748.03125 C 397.332031 748.054688 402.910156 742.492188 402.925781 735.601562 Z M 402.925781 584.554688 " fill-opacity="1" fill-rule="nonzero"/></g></svg>