<svg xmlns="http://www.w3.org/2000/svg" xmlns:xlink="http://www.w3.org/1999/xlink" width="1000" zoomAndPan="magnify" viewBox="0 0 750 749.999995" height="1000" preserveAspectRatio="xMidYMid meet" version="1.0"><defs><clipPath id="46bdf83a71"><path d="M 462 12.65625 L 588 12.65625 L 588 138 L 462 138 Z M 462 12.65625 " clip-rule="nonzero"/></clipPath><clipPath id="734df4c821"><path d="M 162 12.65625 L 288 12.65625 L 288 138 L 162 138 Z M 162 12.65625 " clip-rule="nonzero"/></clipPath><clipPath id="cc145fcc44"><path d="M 0 262 L 138 262 L 138 737.15625 L 0 737.15625 Z M 0 262 " clip-rule="nonzero"/></clipPath><clipPath id="453517415c"><path d="M 62 412 L 276 412 L 276 737.15625 L 62 737.15625 Z M 62 412 " clip-rule="nonzero"/></clipPath><clipPath id="e1dd5224ea"><path d="M 474 412 L 688 412 L 688 737.15625 L 474 737.15625 Z M 474 412 " clip-rule="nonzero"/></clipPath><clipPath id="baa6b0505a"><path d="M 612 262 L 750 262 L 750 737.15625 L 612 737.15625 Z M 612 262 " clip-rule="nonzero"/></clipPath></defs><path fill="#000000" d="M 487.453125 424.871094 L 487.453125 312.449219 C 487.453125 250.492188 436.972656 200.027344 375 200.027344 C 313.027344 200.027344 262.546875 250.492188 262.546875 312.449219 L 262.546875 424.871094 C 262.546875 431.742188 268.171875 437.363281 275.042969 437.363281 L 474.957031 437.363281 C 481.828125 437.363281 487.453125 431.742188 487.453125 424.871094 Z M 487.453125 424.871094 " fill-opacity="1" fill-rule="nonzero"/><path fill="#000000" d="M 512.441406 312.449219 L 512.441406 387.398438 L 624.890625 387.398438 C 631.765625 387.398438 637.386719 381.777344 637.386719 374.90625 L 637.386719 262.484375 C 637.386719 200.527344 586.910156 150.0625 524.933594 150.0625 C 490.199219 150.0625 459.214844 165.925781 438.597656 190.660156 C 482.453125 213.640625 512.441406 259.609375 512.441406 312.449219 Z M 512.441406 312.449219 " fill-opacity="1" fill-rule="nonzero"/><path fill="#000000" d="M 125.109375 387.398438 L 237.558594 387.398438 L 237.558594 312.449219 C 237.558594 259.609375 267.546875 213.640625 311.402344 190.660156 C 290.785156 165.925781 259.800781 150.0625 225.066406 150.0625 C 163.089844 150.0625 112.613281 200.527344 112.613281 262.484375 L 112.613281 374.90625 C 112.613281 381.777344 118.234375 387.398438 125.109375 387.398438 Z M 125.109375 387.398438 " fill-opacity="1" fill-rule="nonzero"/><path fill="#000000" d="M 437.472656 125.078125 C 437.472656 127.125 437.371094 129.164062 437.171875 131.199219 C 436.972656 133.234375 436.671875 135.257812 436.273438 137.261719 C 435.875 139.269531 435.375 141.25 434.78125 143.207031 C 434.1875 145.167969 433.5 147.089844 432.71875 148.980469 C 431.933594 150.871094 431.0625 152.714844 430.097656 154.519531 C 429.132812 156.324219 428.082031 158.078125 426.945312 159.777344 C 425.808594 161.480469 424.589844 163.121094 423.292969 164.699219 C 421.996094 166.28125 420.621094 167.796875 419.175781 169.242188 C 417.726562 170.6875 416.214844 172.0625 414.632812 173.359375 C 413.050781 174.65625 411.410156 175.875 409.707031 177.007812 C 408.007812 178.144531 406.253906 179.195312 404.449219 180.160156 C 402.644531 181.125 400.796875 182 398.90625 182.78125 C 397.015625 183.5625 395.09375 184.253906 393.136719 184.847656 C 391.175781 185.441406 389.195312 185.9375 387.1875 186.335938 C 385.179688 186.734375 383.160156 187.035156 381.125 187.234375 C 379.085938 187.433594 377.046875 187.535156 375 187.535156 C 372.953125 187.535156 370.914062 187.433594 368.875 187.234375 C 366.839844 187.035156 364.820312 186.734375 362.8125 186.335938 C 360.804688 185.9375 358.824219 185.441406 356.863281 184.847656 C 354.90625 184.253906 352.984375 183.5625 351.09375 182.78125 C 349.203125 182 347.355469 181.125 345.550781 180.160156 C 343.746094 179.195312 341.992188 178.144531 340.292969 177.007812 C 338.589844 175.875 336.949219 174.65625 335.367188 173.359375 C 333.785156 172.0625 332.273438 170.6875 330.824219 169.242188 C 329.378906 167.796875 328.003906 166.28125 326.707031 164.699219 C 325.410156 163.121094 324.191406 161.480469 323.054688 159.777344 C 321.917969 158.078125 320.867188 156.324219 319.902344 154.519531 C 318.9375 152.714844 318.066406 150.871094 317.28125 148.980469 C 316.5 147.089844 315.8125 145.167969 315.21875 143.207031 C 314.621094 141.25 314.125 139.269531 313.726562 137.261719 C 313.328125 135.257812 313.027344 133.234375 312.828125 131.199219 C 312.628906 129.164062 312.527344 127.125 312.527344 125.078125 C 312.527344 123.03125 312.628906 120.992188 312.828125 118.957031 C 313.027344 116.921875 313.328125 114.898438 313.726562 112.894531 C 314.125 110.886719 314.621094 108.90625 315.21875 106.949219 C 315.8125 104.992188 316.5 103.066406 317.28125 101.175781 C 318.066406 99.289062 318.9375 97.441406 319.902344 95.636719 C 320.867188 93.832031 321.917969 92.082031 323.054688 90.378906 C 324.191406 88.679688 325.410156 87.039062 326.707031 85.457031 C 328.003906 83.875 329.378906 82.363281 330.824219 80.914062 C 332.273438 79.46875 333.785156 78.097656 335.367188 76.800781 C 336.949219 75.5 338.589844 74.285156 340.292969 73.148438 C 341.992188 72.011719 343.746094 70.960938 345.550781 69.996094 C 347.355469 69.03125 349.203125 68.160156 351.09375 67.375 C 352.984375 66.59375 354.90625 65.90625 356.863281 65.3125 C 358.824219 64.71875 360.804688 64.222656 362.8125 63.820312 C 364.820312 63.421875 366.839844 63.121094 368.875 62.921875 C 370.914062 62.722656 372.953125 62.621094 375 62.621094 C 377.046875 62.621094 379.085938 62.722656 381.125 62.921875 C 383.160156 63.121094 385.179688 63.421875 387.1875 63.820312 C 389.195312 64.222656 391.175781 64.71875 393.136719 65.3125 C 395.09375 65.90625 397.015625 66.59375 398.90625 67.375 C 400.796875 68.160156 402.644531 69.03125 404.449219 69.996094 C 406.253906 70.960938 408.007812 72.011719 409.707031 73.148438 C 411.410156 74.285156 413.050781 75.5 414.632812 76.800781 C 416.214844 78.097656 417.726562 79.46875 419.175781 80.914062 C 420.621094 82.363281 421.996094 83.875 423.292969 85.457031 C 424.589844 87.039062 425.808594 88.679688 426.945312 90.378906 C 428.082031 92.082031 429.132812 93.832031 430.097656 95.636719 C 431.0625 97.441406 431.933594 99.289062 432.71875 101.175781 C 433.5 103.066406 434.1875 104.992188 434.78125 106.949219 C 435.375 108.90625 435.875 110.886719 436.273438 112.894531 C 436.671875 114.898438 436.972656 116.921875 437.171875 118.957031 C 437.371094 120.992188 437.472656 123.03125 437.472656 125.078125 Z M 437.472656 125.078125 " fill-opacity="1" fill-rule="nonzero"/><g clip-path="url(#46bdf83a71)"><path fill="#000000" d="M 587.410156 75.113281 C 587.410156 77.160156 587.308594 79.199219 587.109375 81.234375 C 586.90625 83.269531 586.605469 85.292969 586.207031 87.296875 C 585.808594 89.304688 585.3125 91.285156 584.71875 93.242188 C 584.125 95.199219 583.4375 97.125 582.652344 99.015625 C 581.871094 100.902344 580.996094 102.75 580.03125 104.554688 C 579.066406 106.359375 578.015625 108.113281 576.878906 109.8125 C 575.742188 111.511719 574.527344 113.152344 573.226562 114.734375 C 571.929688 116.316406 570.558594 117.832031 569.109375 119.277344 C 567.664062 120.722656 566.148438 122.09375 564.566406 123.394531 C 562.984375 124.691406 561.34375 125.90625 559.644531 127.042969 C 557.941406 128.179688 556.1875 129.230469 554.386719 130.195312 C 552.582031 131.160156 550.734375 132.03125 548.84375 132.816406 C 546.953125 133.597656 545.027344 134.285156 543.070312 134.878906 C 541.113281 135.472656 539.128906 135.972656 537.125 136.371094 C 535.117188 136.769531 533.09375 137.070312 531.058594 137.269531 C 529.023438 137.46875 526.980469 137.570312 524.933594 137.570312 C 522.890625 137.570312 520.847656 137.46875 518.8125 137.269531 C 516.777344 137.070312 514.753906 136.769531 512.746094 136.371094 C 510.742188 135.972656 508.757812 135.472656 506.800781 134.878906 C 504.84375 134.285156 502.917969 133.597656 501.027344 132.816406 C 499.136719 132.03125 497.289062 131.160156 495.484375 130.195312 C 493.679688 129.230469 491.929688 128.179688 490.226562 127.042969 C 488.527344 125.90625 486.882812 124.691406 485.304688 123.394531 C 483.722656 122.09375 482.207031 120.722656 480.761719 119.277344 C 479.3125 117.832031 477.941406 116.316406 476.644531 114.734375 C 475.34375 113.152344 474.128906 111.511719 472.992188 109.8125 C 471.855469 108.113281 470.804688 106.359375 469.839844 104.554688 C 468.875 102.75 468 100.902344 467.21875 99.015625 C 466.433594 97.125 465.746094 95.199219 465.152344 93.242188 C 464.558594 91.285156 464.0625 89.304688 463.664062 87.296875 C 463.261719 85.292969 462.964844 83.269531 462.761719 81.234375 C 462.5625 79.199219 462.460938 77.160156 462.460938 75.113281 C 462.460938 73.066406 462.5625 71.027344 462.761719 68.992188 C 462.964844 66.957031 463.261719 64.933594 463.664062 62.929688 C 464.0625 60.921875 464.558594 58.941406 465.152344 56.984375 C 465.746094 55.027344 466.433594 53.101562 467.21875 51.210938 C 468 49.320312 468.875 47.476562 469.839844 45.671875 C 470.804688 43.867188 471.855469 42.113281 472.992188 40.414062 C 474.128906 38.714844 475.34375 37.070312 476.644531 35.492188 C 477.941406 33.910156 479.3125 32.394531 480.761719 30.949219 C 482.207031 29.503906 483.722656 28.132812 485.304688 26.832031 C 486.882812 25.535156 488.527344 24.320312 490.226562 23.183594 C 491.929688 22.046875 493.679688 20.996094 495.484375 20.03125 C 497.289062 19.066406 499.136719 18.191406 501.027344 17.410156 C 502.917969 16.628906 504.84375 15.9375 506.800781 15.34375 C 508.757812 14.75 510.742188 14.253906 512.746094 13.855469 C 514.753906 13.457031 516.777344 13.15625 518.8125 12.957031 C 520.847656 12.757812 522.890625 12.65625 524.933594 12.65625 C 526.980469 12.65625 529.023438 12.757812 531.058594 12.957031 C 533.09375 13.15625 535.117188 13.457031 537.125 13.855469 C 539.128906 14.253906 541.113281 14.75 543.070312 15.34375 C 545.027344 15.9375 546.953125 16.628906 548.84375 17.410156 C 550.734375 18.191406 552.582031 19.066406 554.386719 20.03125 C 556.1875 20.996094 557.941406 22.046875 559.644531 23.183594 C 561.34375 24.320312 562.984375 25.535156 564.566406 26.832031 C 566.148438 28.132812 567.664062 29.503906 569.109375 30.949219 C 570.558594 32.394531 571.929688 33.910156 573.226562 35.492188 C 574.527344 37.070312 575.742188 38.714844 576.878906 40.414062 C 578.015625 42.113281 579.066406 43.867188 580.03125 45.671875 C 580.996094 47.476562 581.871094 49.320312 582.652344 51.210938 C 583.4375 53.101562 584.125 55.027344 584.71875 56.984375 C 585.3125 58.941406 585.808594 60.921875 586.207031 62.929688 C 586.605469 64.933594 586.90625 66.957031 587.109375 68.992188 C 587.308594 71.027344 587.410156 73.066406 587.410156 75.113281 Z M 587.410156 75.113281 " fill-opacity="1" fill-rule="nonzero"/></g><g clip-path="url(#734df4c821)"><path fill="#000000" d="M 287.539062 75.113281 C 287.539062 77.160156 287.4375 79.199219 287.238281 81.234375 C 287.035156 83.269531 286.738281 85.292969 286.335938 87.296875 C 285.9375 89.304688 285.441406 91.285156 284.847656 93.242188 C 284.253906 95.199219 283.566406 97.125 282.78125 99.015625 C 282 100.902344 281.125 102.75 280.160156 104.554688 C 279.195312 106.359375 278.144531 108.113281 277.007812 109.8125 C 275.871094 111.511719 274.65625 113.152344 273.355469 114.734375 C 272.058594 116.316406 270.6875 117.832031 269.238281 119.277344 C 267.792969 120.722656 266.277344 122.09375 264.695312 123.394531 C 263.117188 124.691406 261.472656 125.90625 259.773438 127.042969 C 258.070312 128.179688 256.320312 129.230469 254.515625 130.195312 C 252.710938 131.160156 250.863281 132.03125 248.972656 132.816406 C 247.082031 133.597656 245.15625 134.285156 243.199219 134.878906 C 241.242188 135.472656 239.257812 135.972656 237.253906 136.371094 C 235.246094 136.769531 233.222656 137.070312 231.1875 137.269531 C 229.152344 137.46875 227.109375 137.570312 225.066406 137.570312 C 223.019531 137.570312 220.976562 137.46875 218.941406 137.269531 C 216.90625 137.070312 214.882812 136.769531 212.875 136.371094 C 210.871094 135.972656 208.886719 135.472656 206.929688 134.878906 C 204.972656 134.285156 203.046875 133.597656 201.15625 132.816406 C 199.265625 132.03125 197.417969 131.160156 195.613281 130.195312 C 193.8125 129.230469 192.058594 128.179688 190.355469 127.042969 C 188.65625 125.90625 187.015625 124.691406 185.433594 123.394531 C 183.851562 122.09375 182.335938 120.722656 180.890625 119.277344 C 179.441406 117.832031 178.070312 116.316406 176.773438 114.734375 C 175.472656 113.152344 174.257812 111.511719 173.121094 109.8125 C 171.984375 108.113281 170.933594 106.359375 169.96875 104.554688 C 169.003906 102.75 168.128906 100.902344 167.347656 99.015625 C 166.5625 97.125 165.875 95.199219 165.28125 93.242188 C 164.6875 91.285156 164.191406 89.304688 163.792969 87.296875 C 163.394531 85.292969 163.09375 83.269531 162.890625 81.234375 C 162.691406 79.199219 162.589844 77.160156 162.589844 75.113281 C 162.589844 73.066406 162.691406 71.027344 162.890625 68.992188 C 163.09375 66.957031 163.394531 64.933594 163.792969 62.929688 C 164.191406 60.921875 164.6875 58.941406 165.28125 56.984375 C 165.875 55.027344 166.5625 53.101562 167.347656 51.210938 C 168.128906 49.320312 169.003906 47.476562 169.96875 45.671875 C 170.933594 43.867188 171.984375 42.113281 173.121094 40.414062 C 174.257812 38.714844 175.472656 37.070312 176.773438 35.492188 C 178.070312 33.910156 179.441406 32.394531 180.890625 30.949219 C 182.335938 29.503906 183.851562 28.132812 185.433594 26.832031 C 187.015625 25.535156 188.65625 24.320312 190.355469 23.183594 C 192.058594 22.046875 193.8125 20.996094 195.613281 20.03125 C 197.417969 19.066406 199.265625 18.191406 201.15625 17.410156 C 203.046875 16.628906 204.972656 15.9375 206.929688 15.34375 C 208.886719 14.75 210.871094 14.253906 212.875 13.855469 C 214.882812 13.457031 216.90625 13.15625 218.941406 12.957031 C 220.976562 12.757812 223.019531 12.65625 225.066406 12.65625 C 227.109375 12.65625 229.152344 12.757812 231.1875 12.957031 C 233.222656 13.15625 235.246094 13.457031 237.253906 13.855469 C 239.257812 14.253906 241.242188 14.75 243.199219 15.34375 C 245.15625 15.9375 247.082031 16.628906 248.972656 17.410156 C 250.863281 18.191406 252.710938 19.066406 254.515625 20.03125 C 256.320312 20.996094 258.070312 22.046875 259.773438 23.183594 C 261.472656 24.320312 263.117188 25.535156 264.695312 26.832031 C 266.277344 28.132812 267.792969 29.503906 269.238281 30.949219 C 270.6875 32.394531 272.058594 33.910156 273.355469 35.492188 C 274.65625 37.070312 275.871094 38.714844 277.007812 40.414062 C 278.144531 42.113281 279.195312 43.867188 280.160156 45.671875 C 281.125 47.476562 282 49.320312 282.78125 51.210938 C 283.566406 53.101562 284.253906 55.027344 284.847656 56.984375 C 285.441406 58.941406 285.9375 60.921875 286.335938 62.929688 C 286.738281 64.933594 287.035156 66.957031 287.238281 68.992188 C 287.4375 71.027344 287.539062 73.066406 287.539062 75.113281 Z M 287.539062 75.113281 " fill-opacity="1" fill-rule="nonzero"/></g><g clip-path="url(#cc145fcc44)"><path fill="#000000" d="M 45.015625 528.925781 C 32.148438 515.058594 25.152344 496.945312 25.152344 478.085938 L 25.152344 306.203125 C 25.152344 300.957031 27.398438 295.835938 31.273438 292.339844 C 35.273438 288.714844 40.394531 287.09375 45.765625 287.589844 C 55.136719 288.589844 62.507812 297.460938 62.507812 307.953125 L 62.507812 385.648438 C 62.507812 392.519531 68.132812 398.140625 75.003906 398.140625 C 81.875 398.140625 87.5 392.519531 87.5 385.648438 L 87.5 307.953125 C 87.5 284.71875 70.257812 264.855469 48.265625 262.734375 C 35.894531 261.484375 23.652344 265.480469 14.40625 273.851562 C 5.285156 282.09375 0.0351562 293.960938 0.0351562 306.328125 L 0.0351562 478.210938 C 0.0351562 503.441406 9.40625 527.425781 26.523438 546.039062 L 109.113281 635.601562 C 111.238281 637.976562 112.488281 640.972656 112.488281 644.09375 L 112.488281 724.914062 C 112.488281 731.785156 118.109375 737.40625 124.984375 737.40625 C 131.855469 737.40625 137.476562 731.785156 137.476562 724.914062 L 137.476562 644.09375 C 137.476562 634.601562 133.980469 625.609375 127.480469 618.738281 L 44.890625 529.175781 Z M 45.015625 528.925781 " fill-opacity="1" fill-rule="nonzero"/></g><g clip-path="url(#453517415c)"><path fill="#000000" d="M 137.226562 425.121094 C 120.234375 408.257812 92.496094 408.257812 75.378906 425.121094 C 67.132812 433.367188 62.507812 444.359375 62.507812 456.101562 C 62.507812 467.84375 67.007812 478.710938 75.378906 486.953125 L 137.351562 548.910156 C 139.851562 551.410156 142.976562 552.535156 146.222656 552.535156 C 149.472656 552.535156 152.597656 551.285156 155.09375 548.910156 C 159.96875 544.039062 159.96875 536.171875 155.09375 531.296875 L 93.121094 469.339844 C 89.625 465.84375 87.625 461.097656 87.625 456.101562 C 87.625 451.105469 89.625 446.355469 93.121094 442.859375 C 100.492188 435.738281 112.363281 435.738281 119.609375 442.859375 L 224.441406 547.660156 C 240.933594 564.152344 250.054688 586.136719 250.054688 609.496094 L 250.054688 724.789062 C 250.054688 731.660156 255.675781 737.28125 262.546875 737.28125 C 269.421875 737.28125 275.042969 731.660156 275.042969 724.789062 L 275.042969 609.496094 C 275.042969 579.515625 263.296875 551.285156 242.058594 530.050781 L 137.226562 425.246094 Z M 137.226562 425.121094 " fill-opacity="1" fill-rule="nonzero"/></g><g clip-path="url(#e1dd5224ea)"><path fill="#000000" d="M 674.496094 487.078125 C 682.742188 478.835938 687.367188 467.84375 687.367188 456.101562 C 687.367188 444.359375 682.867188 433.492188 674.496094 425.121094 C 657.503906 408.257812 629.765625 408.257812 612.648438 425.121094 L 507.816406 529.925781 C 486.578125 551.160156 474.832031 579.390625 474.832031 609.371094 L 474.832031 724.664062 C 474.832031 731.535156 480.453125 737.15625 487.328125 737.15625 C 494.199219 737.15625 499.820312 731.535156 499.820312 724.664062 L 499.820312 609.371094 C 499.820312 586.011719 508.941406 564.027344 525.433594 547.535156 L 630.140625 442.859375 C 637.511719 435.613281 649.382812 435.613281 656.628906 442.859375 C 660.128906 446.355469 662.125 451.105469 662.125 456.101562 C 662.125 461.097656 660.128906 465.84375 656.628906 469.339844 L 594.65625 531.296875 C 589.78125 536.171875 589.78125 544.039062 594.65625 548.910156 C 597.152344 551.410156 600.277344 552.535156 603.527344 552.535156 C 606.773438 552.535156 609.898438 551.285156 612.398438 548.910156 L 674.371094 486.953125 Z M 674.496094 487.078125 " fill-opacity="1" fill-rule="nonzero"/></g><g clip-path="url(#baa6b0505a)"><path fill="#000000" d="M 735.46875 273.726562 C 726.347656 265.480469 714.105469 261.359375 701.609375 262.609375 C 679.617188 264.855469 662.375 284.71875 662.375 307.828125 L 662.375 385.523438 C 662.375 392.394531 668 398.015625 674.871094 398.015625 C 681.742188 398.015625 687.367188 392.394531 687.367188 385.523438 L 687.367188 307.828125 C 687.367188 297.335938 694.738281 288.339844 704.109375 287.464844 C 709.480469 286.84375 714.726562 288.589844 718.601562 292.214844 C 722.476562 295.710938 724.722656 300.832031 724.722656 306.078125 L 724.722656 477.960938 C 724.722656 496.820312 717.726562 514.933594 704.859375 528.800781 L 622.269531 618.363281 C 615.894531 625.359375 612.398438 634.351562 612.398438 643.722656 L 612.398438 724.539062 C 612.398438 731.410156 618.019531 737.03125 624.890625 737.03125 C 631.765625 737.03125 637.386719 731.410156 637.386719 724.539062 L 637.386719 643.722656 C 637.386719 640.597656 638.511719 637.601562 640.761719 635.226562 L 723.351562 545.664062 C 740.46875 527.175781 749.839844 503.066406 749.839844 477.835938 L 749.839844 305.953125 C 749.839844 293.585938 744.589844 281.84375 735.46875 273.476562 Z M 735.46875 273.726562 " fill-opacity="1" fill-rule="nonzero"/></g></svg>