<svg width="18" height="18" viewBox="0 0 18 18" fill="none" xmlns="http://www.w3.org/2000/svg">
<path d="M8.35009 7.05501L8.35095 16.9983H3.81066C3.09288 16.9983 2.40228 16.7238 1.88047 16.2311C1.35866 15.7383 1.04518 15.0646 1.00432 14.3482L1 14.1899V7.05415L8.35009 7.05501ZM9.64732 12.2419H16.9991V14.1899C16.9991 14.9352 16.703 15.65 16.1759 16.177C15.6488 16.7039 14.9339 17 14.1885 17L9.64818 16.9983L9.64732 12.2419ZM14.1893 1.00173C14.9071 1.00167 15.5977 1.27616 16.1195 1.76892C16.6413 2.26168 16.9548 2.93537 16.9957 3.65182L17 3.81092L16.9991 10.945H9.64732L9.64818 1.00086L14.1893 1.00173ZM8.35095 1L8.35009 5.75807H1V3.81092C1 3.06564 1.29612 2.3509 1.82322 1.82391C2.35032 1.29692 3.06523 1.00086 3.81066 1.00086L8.35095 1Z" fill="#2A2A2A"/>
</svg>
