<svg xmlns="http://www.w3.org/2000/svg" xmlns:xlink="http://www.w3.org/1999/xlink" width="1000" zoomAndPan="magnify" viewBox="0 0 750 749.999995" height="1000" preserveAspectRatio="xMidYMid meet" version="1.0"><defs><clipPath id="7a90100d3f"><path d="M 0 11.71875 L 750 11.71875 L 750 738 L 0 738 Z M 0 11.71875 " clip-rule="nonzero"/></clipPath></defs><g clip-path="url(#7a90100d3f)"><path fill="#000000" d="M 128.65625 158.953125 C 199.722656 158.953125 257.316406 216.5625 257.316406 287.644531 C 257.316406 358.726562 199.722656 416.335938 128.65625 416.335938 C 57.59375 416.335938 0 358.726562 0 287.644531 C 0 216.5625 57.59375 158.953125 128.65625 158.953125 Z M 204.988281 358.40625 C 222.203125 339.835938 232.722656 314.96875 232.722656 287.644531 C 232.722656 230.148438 186.136719 183.550781 128.65625 183.550781 C 71.175781 183.550781 24.589844 230.148438 24.589844 287.644531 C 24.589844 314.96875 35.113281 339.835938 52.328125 358.40625 C 63.699219 327.242188 93.585938 304.988281 128.65625 304.988281 C 163.726562 304.988281 193.617188 327.242188 204.988281 358.40625 Z M 128.65625 298.878906 C 106.046875 298.878906 87.5625 280.390625 87.5625 257.773438 C 87.5625 235.160156 106.046875 216.671875 128.65625 216.671875 C 151.265625 216.671875 169.753906 235.160156 169.753906 257.773438 C 169.753906 280.390625 151.265625 298.878906 128.65625 298.878906 Z M 404.320312 31.21875 C 414.589844 33.660156 424.386719 37.71875 433.390625 43.265625 L 452.285156 34.863281 L 474.539062 57.125 L 466.167969 76.023438 C 471.714844 85.027344 475.773438 94.824219 478.214844 105.132812 L 497.488281 112.550781 L 497.488281 144.039062 L 478.214844 151.457031 C 475.773438 161.730469 471.683594 171.53125 466.167969 180.535156 L 474.539062 199.433594 L 452.285156 221.691406 L 433.390625 213.324219 C 424.417969 218.871094 414.589844 222.929688 404.320312 225.371094 L 396.902344 244.652344 L 365.421875 244.652344 L 358.007812 225.371094 C 347.703125 222.929688 337.90625 218.839844 328.902344 213.324219 L 310.011719 221.691406 L 287.757812 199.433594 L 296.15625 180.535156 C 290.609375 171.5625 286.550781 161.730469 284.078125 151.457031 L 264.804688 144.039062 L 264.804688 112.550781 L 284.078125 105.132812 C 286.550781 94.824219 290.609375 85.027344 296.15625 76.023438 L 287.757812 57.125 L 310.011719 34.863281 L 328.902344 43.265625 C 337.90625 37.71875 347.703125 33.660156 357.972656 31.21875 L 365.421875 11.90625 L 396.902344 11.90625 Z M 381.148438 73.359375 C 350.808594 73.359375 326.242188 97.933594 326.242188 128.277344 C 326.242188 158.625 350.808594 183.230469 381.148438 183.230469 C 411.484375 183.230469 436.085938 158.625 436.085938 128.277344 C 436.085938 97.933594 411.484375 73.359375 381.148438 73.359375 Z M 633.65625 404.035156 C 569.582031 404.035156 517.316406 351.757812 517.316406 287.664062 C 517.316406 223.570312 569.582031 171.292969 633.65625 171.292969 C 697.734375 171.292969 750 223.570312 750 287.664062 C 750 351.757812 697.734375 404.035156 633.65625 404.035156 Z M 621.363281 219.703125 C 619.0625 220.257812 616.820312 220.960938 614.652344 221.816406 C 598.585938 228.140625 587.035156 242.027344 587.957031 260.882812 C 589.117188 285.449219 611.085938 296 631.796875 299.375 C 637.160156 300.257812 642.917969 301.519531 647.984375 303.820312 C 653.210938 306.195312 657.765625 309.773438 658.558594 316.378906 L 658.5625 316.390625 C 659.167969 321.386719 656.816406 324.929688 653.378906 327.300781 C 648.214844 330.863281 641.195312 332.402344 634.894531 332.542969 L 634.867188 332.542969 C 623.289062 332.832031 611.230469 327.867188 608.285156 316.023438 C 606.644531 309.433594 599.96875 305.417969 593.382812 307.058594 C 586.800781 308.695312 582.785156 315.375 584.421875 321.960938 C 589.042969 340.53125 603.964844 352.097656 621.363281 355.828125 L 621.363281 361.320312 C 621.363281 368.105469 626.871094 373.617188 633.65625 373.617188 C 640.441406 373.617188 645.953125 368.105469 645.953125 361.320312 L 645.953125 356.011719 C 666.554688 352.054688 685.921875 337.796875 682.972656 313.4375 C 679.953125 288.320312 656.894531 278.582031 635.773438 275.101562 L 635.75 275.097656 C 630.800781 274.292969 625.550781 273.0625 621.015625 270.847656 C 616.582031 268.679688 612.792969 265.457031 612.519531 259.722656 L 612.519531 259.691406 C 612.152344 252.25 617.316406 247.199219 623.65625 244.703125 C 634.949219 240.261719 650.703125 243.050781 656.59375 257.09375 C 659.21875 263.351562 666.433594 266.296875 672.6875 263.671875 C 678.945312 261.046875 681.894531 253.832031 679.269531 247.574219 C 672.640625 231.777344 659.855469 222.773438 645.953125 219.566406 L 645.953125 214.046875 C 645.953125 207.257812 640.441406 201.75 633.65625 201.75 C 626.871094 201.75 621.363281 207.257812 621.363281 214.046875 Z M 79.746094 565 C 79.789062 565.074219 79.828125 565.144531 79.867188 565.214844 L 147.703125 685.109375 C 147.738281 685.171875 147.773438 685.234375 147.8125 685.296875 L 162.71875 711.648438 C 164.039062 714 163.226562 717.007812 160.886719 718.332031 L 160.871094 718.339844 L 128.167969 736.878906 C 125.816406 738.199219 122.8125 737.386719 121.488281 735.046875 L 121.484375 735.039062 L 25.226562 564.90625 L 25.21875 564.898438 C 23.894531 562.558594 24.703125 559.5625 27.035156 558.25 L 27.042969 558.242188 L 59.804688 539.691406 C 62.148438 538.367188 65.152344 539.222656 66.492188 541.566406 Z M 54.8125 559.117188 C 47.382812 560.175781 42.253906 567.078125 43.316406 574.507812 C 44.421875 581.9375 51.320312 587.113281 58.746094 586.007812 C 66.175781 584.945312 71.308594 578.003906 70.246094 570.570312 C 69.140625 563.140625 62.242188 558.007812 54.8125 559.117188 Z M 163.050781 662.292969 L 107.207031 563.59375 L 192.515625 514.1875 C 212.191406 502.804688 231.964844 493.769531 253.578125 500.789062 L 253.582031 500.792969 C 281.675781 509.902344 327.472656 529.316406 374.265625 537.917969 C 384.871094 541.707031 391.726562 552.28125 388.789062 563.207031 L 388.785156 563.210938 C 385.882812 574.03125 376.613281 579.210938 363.988281 577.824219 C 338.3125 572.511719 314.464844 564.714844 288.015625 557.605469 C 281.460938 555.84375 274.710938 559.734375 272.949219 566.289062 C 271.1875 572.84375 275.078125 579.597656 281.632812 581.359375 C 308.753906 588.648438 359.894531 602.089844 360.0625 602.117188 C 360.0625 602.117188 374.574219 604.480469 374.585938 604.480469 C 396.128906 607.910156 415.894531 604.867188 434.753906 593.871094 L 551.464844 525.882812 C 578.300781 510.246094 596.777344 506.960938 608.816406 511.972656 C 617.972656 515.78125 621.582031 524.957031 621.351562 533.617188 C 621.160156 540.929688 618.429688 548.292969 612.695312 551.824219 L 400.90625 682.253906 L 400.894531 682.257812 C 384.414062 692.433594 366.347656 694.730469 347.644531 689.742188 L 194.027344 648.5625 C 190.878906 647.71875 187.523438 648.160156 184.699219 649.789062 Z M 393.441406 384.34375 C 393.441406 391.128906 387.933594 396.640625 381.148438 396.640625 C 374.363281 396.640625 368.851562 391.128906 368.851562 384.34375 L 368.851562 300.6875 C 368.851562 293.902344 374.363281 288.390625 381.148438 288.390625 C 387.933594 288.390625 393.441406 293.902344 393.441406 300.6875 Z M 425.832031 430.109375 C 420.511719 434.320312 412.769531 433.417969 408.5625 428.097656 C 404.351562 422.773438 405.253906 415.03125 410.574219 410.820312 L 482.4375 353.945312 C 487.757812 349.734375 495.5 350.636719 499.710938 355.960938 C 503.921875 361.28125 503.019531 369.023438 497.695312 373.234375 Z M 351.722656 410.820312 C 357.042969 415.03125 357.945312 422.773438 353.734375 428.097656 C 349.523438 433.417969 341.785156 434.320312 336.464844 430.109375 L 264.597656 373.234375 C 259.277344 369.023438 258.375 361.28125 262.585938 355.960938 C 266.796875 350.636719 274.535156 349.734375 279.855469 353.945312 Z M 351.722656 410.820312 " fill-opacity="1" fill-rule="evenodd"/></g></svg>