<svg xmlns="http://www.w3.org/2000/svg" xmlns:xlink="http://www.w3.org/1999/xlink" width="1000" zoomAndPan="magnify" viewBox="0 0 750 749.999995" height="1000" preserveAspectRatio="xMidYMid meet" version="1.0"><defs><clipPath id="fa3161d1b8"><path d="M 0 0 L 749.25 0 L 749.25 750 L 0 750 Z M 0 0 " clip-rule="nonzero"/></clipPath></defs><g clip-path="url(#fa3161d1b8)"><path fill="#000000" d="M 149.789062 320.765625 L 149.789062 259.089844 L 199.445312 239.988281 C 205.816406 213.460938 216.269531 188.238281 230.5625 165.054688 L 208.917969 116.402344 L 266.25 59.101562 L 314.929688 80.730469 C 338.121094 66.445312 363.359375 56 389.816406 49.710938 L 409.011719 0 L 490.109375 0 L 509.21875 49.710938 C 535.683594 56 560.917969 66.445312 584.113281 80.730469 L 632.785156 59.101562 L 690.121094 116.402344 L 668.558594 165.054688 C 682.851562 188.238281 693.304688 213.460938 699.59375 239.988281 L 749.25 259.089844 L 749.25 340.148438 L 699.59375 359.25 C 693.304688 385.699219 682.769531 410.921875 668.558594 434.105469 L 690.121094 482.753906 L 632.785156 540.058594 L 584.113281 518.507812 C 561 532.792969 535.683594 543.242188 509.21875 549.527344 L 490.109375 599.160156 L 409.011719 599.160156 L 389.902344 549.527344 C 363.40625 543.253906 338.214844 532.75 315.054688 518.585938 C 327.929688 502.566406 337.125 483.464844 341.355469 462.566406 C 372.390625 483.222656 409.605469 495.277344 449.546875 495.277344 C 557.394531 495.277344 645.316406 407.398438 645.316406 299.609375 C 645.316406 191.816406 557.394531 103.882812 449.546875 103.882812 C 341.707031 103.882812 253.722656 191.816406 253.722656 299.609375 C 253.722656 303.640625 253.847656 307.648438 254.089844 311.621094 C 241.007812 307.261719 227.015625 304.902344 212.46875 304.902344 C 189.773438 304.902344 168.421875 310.648438 149.789062 320.765625 Z M 423.84375 316.832031 L 519.011719 220.722656 C 530.285156 209.394531 548.6875 209.335938 560.023438 220.605469 C 571.355469 231.875 571.414062 250.210938 560.140625 261.597656 C 521.523438 300.542969 483.199219 339.722656 444.40625 378.496094 C 433.074219 389.824219 414.671875 389.824219 403.339844 378.496094 L 339.015625 314.148438 C 327.683594 302.820312 327.683594 284.484375 339.015625 273.097656 C 350.351562 261.769531 368.753906 261.769531 380.085938 273.097656 Z M 0.953125 732.078125 C 20.449219 633.109375 107.734375 558.457031 212.46875 558.457031 C 317.203125 558.457031 404.484375 633.109375 424.003906 732.074219 C 424.910156 736.664062 423.714844 741.421875 420.742188 745.035156 C 417.769531 748.652344 413.332031 750.75 408.652344 750.75 C 338.59375 750.75 86.339844 750.75 16.285156 750.726562 C 11.609375 750.726562 7.175781 748.632812 4.210938 745.023438 C 1.242188 741.414062 0.046875 736.664062 0.953125 732.078125 Z M 212.46875 329.929688 C 271.269531 329.929688 318.9375 377.574219 318.9375 436.34375 C 318.9375 495.113281 271.269531 542.757812 212.46875 542.757812 C 153.667969 542.757812 106 495.113281 106 436.34375 C 106 377.574219 153.667969 329.929688 212.46875 329.929688 Z M 212.46875 329.929688 " fill-opacity="1" fill-rule="evenodd"/></g></svg>