<svg width="18" height="18" viewBox="0 0 18 18" fill="none" xmlns="http://www.w3.org/2000/svg">
<path d="M0.631419 3.6396C0.209879 3.24822 0.000244141 2.76376 0.000244141 2.18734C0.000244141 1.61092 0.211001 1.10514 0.631419 0.712636C1.05296 0.321252 1.59558 0.125 2.2604 0.125C2.92522 0.125 3.44655 0.321252 3.86697 0.712636C4.28851 1.10402 4.49814 1.59634 4.49814 2.18734C4.49814 2.77834 4.28739 3.24822 3.86697 3.6396C3.44543 4.03099 2.91065 4.22724 2.2604 4.22724C1.61016 4.22724 1.05296 4.03099 0.631419 3.6396ZM4.14388 5.88474V17.8842H0.353384V5.88474H4.14388Z" fill="#FDFDFD"/>
<path d="M16.7622 7.07034C17.5885 7.9675 18.001 9.19886 18.001 10.7666V17.6725H14.4012V11.2533C14.4012 10.4627 14.196 9.84816 13.7868 9.4108C13.3776 8.97343 12.826 8.75363 12.1354 8.75363C11.4448 8.75363 10.8932 8.97231 10.484 9.4108C10.0748 9.84816 9.86959 10.4627 9.86959 11.2533V17.6725H6.24841V5.85133H9.86959V7.41911C10.2362 6.89652 10.7306 6.48383 11.3517 6.17992C11.9728 5.87601 12.6713 5.72461 13.4482 5.72461C14.8317 5.72461 15.9371 6.17319 16.7622 7.06922V7.07034Z" fill="#FDFDFD"/>
</svg>
