<svg width="83" height="32" viewBox="0 0 83 32" fill="none" xmlns="http://www.w3.org/2000/svg">
<path d="M67.2085 13.8036V8.73161H70.1403V1.39062L78.3584 1.39062V8.73161H82.6673V13.8036L78.3584 13.8036V23.0132C78.3584 23.725 78.5213 24.2589 78.847 24.6148C79.2024 24.9708 79.6911 25.1636 80.313 25.1932C80.9349 25.2229 81.69 25.2081 82.5785 25.1487V31.333C81.0978 31.6889 79.7207 31.8669 78.4472 31.8669C75.5746 31.8669 73.472 31.3626 72.1393 30.3542C70.8067 29.3161 70.1403 27.4919 70.1403 24.8818V13.8036H67.2085Z" fill="#FDFDFD"/>
<path d="M58.0255 31.4217C57.6702 30.8285 57.4184 29.998 57.2704 28.9302H57.1815C55.7008 30.9768 53.4205 32.0001 50.3405 32.0001C48.0898 32.0001 46.2685 31.4069 44.8766 30.2205C43.4848 29.034 42.7888 27.3582 42.7888 25.193C42.7888 22.8795 43.5292 21.2185 45.0099 20.21C46.4906 19.1719 48.4896 18.5045 51.0069 18.2079C53.376 17.941 54.9752 17.6296 55.8044 17.2736C56.6633 16.9177 57.0927 16.3838 57.0927 15.672C57.0927 14.2186 56.2931 13.4919 54.6939 13.4919C52.9466 13.4919 51.9545 14.3966 51.7176 16.2058H43.7661C43.8549 13.833 44.8174 11.8754 46.6535 10.3331C48.4896 8.79071 51.1105 8.01953 54.5162 8.01953C57.833 8.01953 60.3059 8.52376 61.9347 9.53222C64.2742 10.9856 65.444 13.2546 65.444 16.3393V27.6845C65.444 29.5828 65.7253 30.7099 66.288 31.0658V31.4217L58.0255 31.4217ZM53.4945 27.0171C54.5606 27.0171 55.4639 26.7057 56.2042 26.0828C56.9446 25.4303 57.3148 24.4663 57.3148 23.1909V21.1888C56.456 21.6041 55.375 21.96 54.072 22.2566C52.8874 22.5235 52.0582 22.8498 51.5844 23.2354C51.1105 23.621 50.8736 24.1549 50.8736 24.8371C50.8736 25.5489 51.1253 26.0976 51.6288 26.4832C52.1322 26.8392 52.7541 27.0171 53.4945 27.0171Z" fill="#FDFDFD"/>
<path d="M25.8218 0V11.7011H25.955C27.8504 9.50621 30.1455 8.40877 32.8404 8.40877C35.4169 8.40877 37.3863 9.19478 38.7485 10.7668C40.1108 12.3388 40.792 14.4595 40.792 17.129V31.811C40.792 31.811 38.2335 31.811 36.5941 31.811C34.9547 31.811 32.3962 31.811 32.3962 31.811V19.1756C32.3962 16.5654 31.3449 15.2604 29.2423 15.2604C28.2057 15.2604 27.3765 15.6756 26.7546 16.5061C26.1327 17.3069 25.8218 18.3302 25.8218 19.576V31.811H17.426L17.426 0L25.8218 0Z" fill="#FDFDFD"/>
<path d="M0 13.7865L0 8.71451H2.93185L2.93185 0.79349C2.93185 0.578987 3.04439 0.38072 3.24388 0.301884C3.8295 0.0704536 5.20192 -0.283828 7.04088 0.447917C8.43109 1.0011 9.55468 1.04392 10.2733 0.974902C10.7025 0.933678 11.1499 1.26367 11.1499 1.69486V8.71451L15.4588 8.71451L15.4588 13.7865L11.1499 13.7865V22.9961C11.1499 23.7079 11.3128 24.2418 11.6385 24.5977C11.9939 24.9537 12.4826 25.1465 13.1045 25.1761C13.7264 25.2058 14.4816 25.191 15.37 25.1316V31.3159C13.8893 31.6718 12.5122 31.8498 11.2387 31.8498C8.36613 31.8498 6.26349 31.3455 4.93083 30.3371C3.59818 29.299 2.93185 27.4748 2.93185 24.8647L2.93185 13.7865H0Z" fill="#FDFDFD"/>
</svg>
