<svg width="18" height="18" viewBox="0 0 18 18" fill="none" xmlns="http://www.w3.org/2000/svg">
<path d="M17.9789 9.37128C17.9809 9.34017 17.9819 9.30805 17.9829 9.27594L18 8.87757L17.985 8.87356C17.9559 6.76831 17.2057 4.77344 15.8529 3.17995L15.869 3.16288L15.4428 2.72437C13.7329 0.967322 11.4434 0 8.99448 0C7.73692 0 6.52749 0.253874 5.39128 0.752592L5.38225 0.745561L5.0132 0.928197C4.52482 1.17003 4.06351 1.453 3.6333 1.7731C3.34648 1.98684 3.07371 2.21562 2.81498 2.46046C2.7187 2.55178 2.62544 2.6451 2.53318 2.74043C1.2686 4.04794 0.410161 5.72471 0.114322 7.55903L0.0190542 8.15308L0.040113 8.15809C0.0140392 8.43705 0 8.71903 0 8.99999C0 11.3852 0.950692 13.6721 2.62443 15.3529L2.61742 15.3659L2.99248 15.7021C4.64416 17.1832 6.7752 18 8.99348 18C9.15093 18 9.30737 17.996 9.46281 17.988C10.5539 17.9328 11.6099 17.6819 12.6067 17.2434C12.6067 17.2434 12.6077 17.2434 12.6087 17.2434L12.9988 17.0718V17.0598C15.9021 15.6098 17.8405 12.6466 17.9779 9.39637C17.9779 9.39536 17.9779 9.39436 17.9779 9.39335C17.9779 9.39235 17.9779 9.39034 17.9779 9.38934V9.37529L17.9789 9.37128ZM16.6612 9.86296C16.6572 9.89507 16.6532 9.92719 16.6492 9.9593C16.6422 10.0145 16.6351 10.0697 16.6271 10.1239C16.6221 10.159 16.6161 10.1941 16.6101 10.2292C16.602 10.2804 16.593 10.3316 16.584 10.3828C16.577 10.4199 16.5699 10.456 16.5619 10.4931C16.5519 10.5423 16.5429 10.5915 16.5318 10.6396C16.5238 10.6768 16.5148 10.7139 16.5058 10.751C16.4947 10.7992 16.4827 10.8464 16.4707 10.8935C16.4606 10.9306 16.4506 10.9688 16.4406 11.0059C16.4275 11.0521 16.4145 11.0992 16.4015 11.1454C16.3904 11.1825 16.3794 11.2206 16.3674 11.2578C16.3533 11.3039 16.3383 11.3491 16.3243 11.3952C16.3122 11.4324 16.2992 11.4695 16.2861 11.5066C16.2701 11.5518 16.2541 11.5969 16.238 11.6421C16.225 11.6782 16.2109 11.7154 16.1969 11.7515C16.1798 11.7966 16.1618 11.8408 16.1437 11.8859C16.1297 11.9221 16.1147 11.9572 16.0996 11.9933C16.0806 12.0375 16.0615 12.0816 16.0414 12.1258C16.0254 12.1609 16.0104 12.196 15.9943 12.2301C15.9733 12.2743 15.9522 12.3184 15.9311 12.3626C15.9151 12.3967 15.898 12.4298 15.881 12.4639C15.8589 12.5081 15.8349 12.5522 15.8118 12.5964C15.7948 12.6285 15.7777 12.6606 15.7607 12.6927C15.7356 12.7379 15.7095 12.783 15.6834 12.8282C15.6664 12.8583 15.6493 12.8884 15.6323 12.9175C15.6032 12.9667 15.5731 13.0158 15.543 13.064C15.528 13.0881 15.513 13.1132 15.4979 13.1382C15.4558 13.2045 15.4127 13.2697 15.3685 13.3349C15.3645 13.342 15.3595 13.348 15.3555 13.355C15.3064 13.4262 15.2562 13.4965 15.2051 13.5667C15.19 13.5868 15.174 13.6069 15.1589 13.6269C15.1228 13.6761 15.0857 13.7243 15.0486 13.7724C15.0286 13.7985 15.0075 13.8236 14.9865 13.8497C14.9534 13.8908 14.9193 13.933 14.8852 13.9731C14.8621 14.0002 14.838 14.0273 14.815 14.0544C14.7819 14.0925 14.7488 14.1307 14.7147 14.1688C14.6896 14.1969 14.6645 14.224 14.6395 14.2511C14.6064 14.2872 14.5723 14.3233 14.5382 14.3595C14.5121 14.3866 14.485 14.4136 14.458 14.4407C14.4239 14.4748 14.3898 14.51 14.3547 14.5441C14.3266 14.5712 14.2995 14.5973 14.2714 14.6244C14.2363 14.6575 14.2012 14.6906 14.1661 14.7227C14.1371 14.7488 14.108 14.7749 14.0789 14.801C14.0428 14.8331 14.0067 14.8642 13.9696 14.8953C13.9395 14.9204 13.9104 14.9455 13.8793 14.9706C13.8422 15.0007 13.8051 15.0318 13.767 15.0609C13.7369 15.085 13.7058 15.109 13.6747 15.1331C13.6366 15.1622 13.5975 15.1913 13.5594 15.2204C13.5283 15.2435 13.4962 15.2666 13.4651 15.2897C13.426 15.3178 13.3859 15.3459 13.3458 15.3729C13.3137 15.395 13.2826 15.4171 13.2505 15.4382C13.2094 15.4653 13.1673 15.4924 13.1262 15.5184C13.0941 15.5385 13.062 15.5596 13.0299 15.5797C12.9998 15.5987 12.9687 15.6158 12.9377 15.6348C12.7922 13.7363 12.367 11.7705 11.6921 9.88003C13.3639 9.50373 15.0607 9.49168 16.6632 9.84891C16.6632 9.85393 16.6632 9.85895 16.6622 9.86296H16.6612ZM11.2228 8.67789C10.9962 8.14104 10.7535 7.61623 10.4927 7.10848C12.1715 6.34485 13.6948 5.31832 14.9584 4.10113C15.9973 5.36448 16.602 6.9108 16.6953 8.54944C14.9213 8.19322 13.054 8.23737 11.2218 8.67789H11.2228ZM1.50426 7.13156C1.53334 7.01415 1.56543 6.89675 1.60053 6.78035C1.60655 6.75928 1.61357 6.7372 1.61959 6.71613C1.65469 6.60274 1.69179 6.49035 1.73191 6.37897C1.73491 6.37094 1.73692 6.36392 1.73993 6.35589C1.74494 6.34184 1.74996 6.32779 1.75497 6.31374C1.79609 6.20336 1.83921 6.09499 1.88434 5.98661C1.89136 5.97056 1.89737 5.95551 1.90439 5.93945C1.9054 5.93644 1.9074 5.93343 1.90841 5.92942C1.95554 5.81904 2.00568 5.71067 2.05883 5.6033C2.06686 5.58624 2.07588 5.56918 2.0839 5.55112C2.13806 5.44274 2.19422 5.33638 2.25338 5.23102C2.26241 5.21396 2.27144 5.19791 2.28146 5.18185C2.33963 5.0795 2.4008 4.97815 2.46398 4.8778C2.471 4.86676 2.47802 4.85572 2.48504 4.84468C2.48905 4.83765 2.49406 4.83063 2.49908 4.82361C2.56326 4.72326 2.63045 4.62493 2.69865 4.5286C2.71068 4.51154 2.72372 4.49348 2.73575 4.47642C2.80595 4.37908 2.87916 4.28275 2.95437 4.18843C2.9664 4.17337 2.97944 4.15831 2.99147 4.14326C3.06769 4.04894 3.14591 3.95563 3.22714 3.86431C3.23717 3.85227 3.2482 3.84122 3.25823 3.82918C3.34147 3.73586 3.42771 3.64555 3.51596 3.55624C3.52599 3.54621 3.53502 3.53717 3.54504 3.52714C3.63129 3.44185 3.71854 3.35756 3.80879 3.27628C3.81682 3.26925 3.82484 3.26123 3.83286 3.2542C3.83787 3.25019 3.84188 3.24617 3.8469 3.24216C3.93715 3.16188 4.02941 3.08362 4.12268 3.00635C4.13772 2.99431 4.15277 2.98127 4.16781 2.96922C4.26308 2.89296 4.35935 2.81971 4.45863 2.74746C4.47568 2.73542 4.49273 2.72238 4.51078 2.71034C4.61006 2.63909 4.71135 2.56985 4.81464 2.50362C4.83069 2.49358 4.84773 2.48255 4.86378 2.47252C4.97008 2.40529 5.07739 2.34006 5.1877 2.27784C5.19572 2.27383 5.20374 2.26881 5.21177 2.2648C6.50242 3.38867 7.68477 4.82361 8.67157 6.46225C6.29082 7.30014 3.7767 7.54297 1.49724 7.15564C1.49925 7.14661 1.50125 7.13858 1.50326 7.12955L1.50426 7.13156ZM9.36654 1.28643C9.40765 1.28843 9.44877 1.29244 9.48988 1.29445C9.57312 1.29947 9.65536 1.30549 9.73759 1.31252C9.78573 1.31753 9.83386 1.32356 9.882 1.32858C9.95621 1.3366 10.0304 1.34562 10.1046 1.35666C10.1558 1.36369 10.2059 1.37273 10.2561 1.38076C10.3273 1.3928 10.3975 1.40484 10.4677 1.41788C10.5188 1.42792 10.5699 1.43795 10.6211 1.44899C10.6903 1.46404 10.7595 1.47909 10.8277 1.49614C10.8788 1.50819 10.929 1.52123 10.9791 1.53428C11.0473 1.55234 11.1155 1.57141 11.1837 1.59148C11.2328 1.60553 11.282 1.62057 11.3311 1.63563C11.4003 1.6577 11.4695 1.68079 11.5387 1.70487C11.5848 1.72093 11.631 1.73598 11.6771 1.75304C11.7513 1.78113 11.8255 1.81023 11.8987 1.84034C11.9378 1.85639 11.9769 1.87044 12.015 1.8875C12.1203 1.93265 12.2246 1.97982 12.3279 2.02899C12.338 2.034 12.349 2.03902 12.359 2.04404C12.4633 2.09421 12.5666 2.14739 12.6679 2.20258C12.705 2.22265 12.7411 2.24372 12.7772 2.2648C12.8464 2.30393 12.9156 2.34306 12.9848 2.38521C13.0269 2.41029 13.067 2.43739 13.1081 2.46348C13.1703 2.50261 13.2315 2.54175 13.2927 2.5829C13.3358 2.612 13.3779 2.6421 13.42 2.6712C13.4782 2.71234 13.5364 2.75348 13.5935 2.79663C13.6356 2.82774 13.6768 2.85985 13.7189 2.89196C13.775 2.93611 13.8312 2.98026 13.8863 3.02642C13.9265 3.05953 13.9666 3.09365 14.0067 3.12777C14.0277 3.14583 14.0488 3.1659 14.0699 3.18396C12.8885 4.32188 11.4555 5.27718 9.87397 5.98461C8.90724 4.34196 7.75196 2.88193 6.48337 1.69283C7.28564 1.41588 8.12602 1.27539 8.99248 1.27539C9.11783 1.27539 9.24218 1.2784 9.36654 1.28442V1.28643ZM1.29768 8.41899C2.07187 8.54944 2.86913 8.61467 3.67742 8.61467C5.5407 8.61467 7.46515 8.27149 9.30436 7.59616C9.54705 8.06277 9.7757 8.54342 9.9883 9.03712C9.881 9.07325 9.77469 9.10937 9.66839 9.1485C6.97075 10.1469 4.73542 11.9241 3.28631 14.1949C2.00067 12.781 1.27561 10.9276 1.27561 8.99899C1.27561 8.80532 1.28364 8.61165 1.29768 8.41899ZM8.65151 16.7126C8.61441 16.7106 8.5773 16.7075 8.5402 16.7055C8.46398 16.7015 8.38877 16.6965 8.31255 16.6895C8.26842 16.6855 8.2253 16.6804 8.18118 16.6754C8.11298 16.6684 8.04379 16.6604 7.9756 16.6513C7.92947 16.6453 7.88333 16.6383 7.8372 16.6313C7.77202 16.6213 7.70683 16.6112 7.64165 16.5992C7.59452 16.5911 7.54739 16.5821 7.50125 16.5721C7.43707 16.559 7.37389 16.546 7.31071 16.5319C7.26358 16.5219 7.21745 16.5109 7.17132 16.4988C7.10814 16.4838 7.04496 16.4667 6.98278 16.4507C6.93665 16.4386 6.89152 16.4256 6.8464 16.4125C6.78322 16.3945 6.72004 16.3744 6.65686 16.3543C6.61274 16.3403 6.56961 16.3272 6.52549 16.3122C6.4603 16.2901 6.39512 16.266 6.33094 16.2429C6.29082 16.2279 6.24971 16.2138 6.20959 16.1978C6.13939 16.1707 6.0692 16.1416 5.999 16.1115C5.9659 16.0974 5.93281 16.0844 5.89971 16.0703C5.79943 16.0262 5.70015 15.98 5.60187 15.9319C5.59986 15.9319 5.59786 15.9299 5.59585 15.9289C5.49457 15.8797 5.39529 15.8275 5.296 15.7733C5.26692 15.7573 5.23784 15.7392 5.20775 15.7232C5.13956 15.685 5.07137 15.6459 5.00418 15.6057C4.96808 15.5837 4.93197 15.5606 4.89587 15.5375C4.8367 15.5004 4.77754 15.4633 4.71937 15.4241C4.68126 15.399 4.64315 15.3719 4.60605 15.3459C4.55089 15.3077 4.49674 15.2696 4.44259 15.2294C4.40347 15.2014 4.36537 15.1723 4.32726 15.1432C4.29818 15.1211 4.2691 15.098 4.24001 15.0749C5.53268 12.9436 7.60053 11.2748 10.1127 10.3446C10.227 10.3025 10.3433 10.2634 10.4596 10.2242C11.1757 12.201 11.6009 14.2651 11.6971 16.2309C11.5858 16.2731 11.4735 16.3122 11.3612 16.3483C11.3311 16.3583 11.3 16.3664 11.2699 16.3754C11.1817 16.4025 11.0924 16.4296 11.0032 16.4537C10.9591 16.4657 10.9139 16.4757 10.8688 16.4878C10.7926 16.5069 10.7164 16.5249 10.6391 16.542C10.591 16.553 10.5419 16.562 10.4927 16.5721C10.4185 16.5871 10.3443 16.6002 10.2691 16.6132C10.22 16.6212 10.1698 16.6293 10.1197 16.6363C10.0435 16.6473 9.96724 16.6574 9.89002 16.6654C9.84189 16.6714 9.79475 16.6764 9.74661 16.6815C9.66237 16.6895 9.57814 16.6955 9.4939 16.7005C9.45278 16.7035 9.41267 16.7065 9.37155 16.7086C9.24619 16.7146 9.11984 16.7186 8.99348 16.7186C8.87916 16.7186 8.76584 16.7156 8.65251 16.7105L8.65151 16.7126Z" fill="#FDFDFD"/>
</svg>
