<svg width="19" height="18" viewBox="0 0 19 18" fill="none" xmlns="http://www.w3.org/2000/svg">
<path d="M14.0907 0H4.70328C2.10983 0 0 2.11046 0 4.70467V13.2953C0 15.8895 2.10983 18 4.70328 18H14.0907C16.6842 18 18.794 15.8895 18.794 13.2953V4.70467C18.794 2.11046 16.6842 0 14.0907 0ZM1.65917 4.70467C1.65917 3.02587 3.02498 1.65966 4.70328 1.65966H14.0907C15.769 1.65966 17.1348 3.02587 17.1348 4.70467V13.2953C17.1348 14.9741 15.769 16.3403 14.0907 16.3403H4.70328C3.02498 16.3403 1.65917 14.9741 1.65917 13.2953V4.70467Z" fill="#FDFDFD"/>
<path d="M9.39744 13.3753C11.8091 13.3753 13.7723 11.4126 13.7723 8.99918C13.7723 6.58571 11.8102 4.62305 9.39744 4.62305C6.98468 4.62305 5.02258 6.58571 5.02258 8.99918C5.02258 11.4126 6.98468 13.3753 9.39744 13.3753ZM9.39744 6.28377C10.895 6.28377 12.1131 7.50219 12.1131 9.00025C12.1131 10.4983 10.895 11.7167 9.39744 11.7167C7.89983 11.7167 6.68175 10.4983 6.68175 9.00025C6.68175 7.50219 7.89983 6.28377 9.39744 6.28377Z" fill="#FDFDFD"/>
<path d="M14.1769 5.32987C14.8263 5.32987 15.3557 4.80145 15.3557 4.15077C15.3557 3.50009 14.8274 2.97168 14.1769 2.97168C13.5264 2.97168 12.9982 3.50009 12.9982 4.15077C12.9982 4.80145 13.5264 5.32987 14.1769 5.32987Z" fill="#FDFDFD"/>
</svg>
