<svg width="20" height="12" viewBox="0 0 20 12" fill="none" xmlns="http://www.w3.org/2000/svg">
<path d="M8.7616 6.60596C8.48356 6.25719 8.16516 5.99029 7.80865 5.80974C8.12368 5.61797 8.39499 5.38247 8.61922 5.10211C8.99703 4.62886 9.18874 4.03561 9.18874 3.33807C9.18874 2.75604 9.03515 2.22112 8.73133 1.74899C8.42863 1.27686 7.97794 0.897805 7.39159 0.621929C6.81758 0.351661 6.12585 0.214844 5.33771 0.214844H0.85437V11.796H5.544C6.31196 11.796 6.99808 11.6558 7.58218 11.38C8.1775 11.0996 8.64164 10.7071 8.96004 10.2148C9.27955 9.72022 9.44212 9.15838 9.44212 8.54494C9.44212 7.8261 9.21341 7.17454 8.7616 6.60708V6.60596ZM6.38035 4.49541C6.10343 4.7197 5.69871 4.83409 5.17963 4.83409H3.2401V2.26822H5.17963C5.69647 2.26822 6.09895 2.38597 6.37586 2.61923C6.64157 2.8424 6.7705 3.1508 6.7705 3.559C6.7705 3.96721 6.64269 4.28345 6.38035 4.49541ZM3.2401 6.88857H5.32202C5.86688 6.88857 6.28617 7.0209 6.60345 7.29341C6.90727 7.5547 7.05526 7.90124 7.05526 8.3543C7.05526 8.80737 6.91848 9.12697 6.63596 9.36584C6.34335 9.61368 5.92293 9.73929 5.3848 9.73929H3.2401V6.88857Z" fill="#FDFDFD"/>
<path d="M18.6016 4.66911C18.2406 4.01643 17.7294 3.5017 17.0814 3.14059C16.4345 2.77949 15.6867 2.59668 14.8615 2.59668C14.0364 2.59668 13.2326 2.78508 12.57 3.15628C11.9063 3.5286 11.3838 4.06354 11.0184 4.74874C10.6529 5.43282 10.4679 6.23578 10.4679 7.13518C10.4679 8.03458 10.6585 8.83865 11.0352 9.52161C11.4119 10.2057 11.9388 10.744 12.6025 11.1208C13.2651 11.4976 14.0252 11.6882 14.8627 11.6882C15.8907 11.6882 16.7641 11.4269 17.4592 10.9122C18.1543 10.3975 18.6408 9.72683 18.9065 8.92051L18.9256 8.86332H16.8919L16.8796 8.888C16.4883 9.68086 15.81 10.0823 14.8615 10.0823C14.2012 10.0823 13.6362 9.87263 13.1821 9.46106C12.7393 9.05846 12.4848 8.52016 12.4254 7.85963H19.0758L19.0814 7.82263C19.124 7.55684 19.1453 7.25629 19.1453 6.92995C19.1453 6.08213 18.9626 5.32179 18.6016 4.66911ZM13.2135 4.78574C13.6463 4.39885 14.1743 4.20372 14.7819 4.20372C15.4535 4.20372 16.0241 4.40222 16.4782 4.79472C16.9199 5.17602 17.1542 5.68851 17.1744 6.31652H12.4444C12.5341 5.67842 12.7931 5.16367 13.2146 4.78687L13.2135 4.78574Z" fill="#FDFDFD"/>
<path d="M17.0211 0.481445H12.5916V1.53112H17.0211V0.481445Z" fill="#FDFDFD"/>
</svg>
