<svg width="26" height="26" viewBox="0 0 26 26" fill="none" xmlns="http://www.w3.org/2000/svg">
<path d="M4.33333 4C3.18406 4 2.08186 4.44777 1.2692 5.2448C0.456546 6.04183 0 7.12283 0 8.25V16.75C0 17.8772 0.456546 18.9582 1.2692 19.7552C2.08186 20.5522 3.18406 21 4.33333 21H14.0833C15.2326 21 16.3348 20.5522 17.1475 19.7552C17.9601 18.9582 18.4167 17.8772 18.4167 16.75V16.4568L24.3793 19.7972C24.5441 19.8895 24.7306 19.9378 24.9203 19.9372C25.11 19.9365 25.2963 19.887 25.4603 19.7937C25.6244 19.7003 25.7606 19.5663 25.8554 19.4051C25.9501 19.2438 25.9999 19.0611 26 18.875V6.125C25.9999 5.93894 25.9501 5.75615 25.8554 5.59493C25.7606 5.43371 25.6244 5.29971 25.4603 5.20633C25.2963 5.11295 25.11 5.06348 24.9203 5.06285C24.7306 5.06222 24.5441 5.11046 24.3793 5.20275L18.4167 8.54325V8.25C18.4167 7.12283 17.9601 6.04183 17.1475 5.2448C16.3348 4.44777 15.2326 4 14.0833 4H4.33333ZM18.4167 10.9912L23.8333 7.95675V17.0432L18.4167 14.0088V10.9912ZM2.16667 8.25C2.16667 7.68641 2.39494 7.14591 2.80127 6.7474C3.2076 6.34888 3.7587 6.125 4.33333 6.125H14.0833C14.658 6.125 15.2091 6.34888 15.6154 6.7474C16.0217 7.14591 16.25 7.68641 16.25 8.25V16.75C16.25 17.3136 16.0217 17.8541 15.6154 18.2526C15.2091 18.6511 14.658 18.875 14.0833 18.875H4.33333C3.7587 18.875 3.2076 18.6511 2.80127 18.2526C2.39494 17.8541 2.16667 17.3136 2.16667 16.75V8.25Z" fill="black"/>
</svg>
